<svg id="Layer_1" data-name="Layer 1" xmlns="http://www.w3.org/2000/svg" viewBox="0 0 676.4 531.2"><defs><style>.cls-1{fill:#5f6368;}</style></defs><title>EW-logo-grey</title><g id="Layer_2" data-name="Layer 2"><g id="Layer_2-2" data-name="Layer 2-2"><polygon class="cls-1" points="587.3 349 488.4 465.6 389.9 349 494.8 349 494.8 284.5 370.5 284.5 370.5 208.1 472.5 208.1 472.5 143.5 370.5 143.5 370.5 64.6 494.8 64.6 494.8 0 181.6 0 181.6 64.6 305.9 64.6 305.9 143.5 203.9 143.5 203.9 208.1 305.9 208.1 305.9 284.5 181.6 284.5 181.6 349 287.8 349 189.2 466.9 90.8 347.1 0 347.1 154.7 531.2 227.2 531.2 339 397.4 450.9 531.2 523 531.2 676.4 349 587.3 349"/></g></g></svg>