<svg id="Layer_1" data-name="Layer 1" xmlns="http://www.w3.org/2000/svg" viewBox="0 0 520 469.12"><defs><style>.cls-1{fill:#fff;}.cls-2{fill:none;}</style></defs><title>EW-logo-3</title><g id="Layer_2" data-name="Layer 2"><g id="Layer_2-2" data-name="Layer 2-2"><polygon class="cls-1" points="451.01 298.52 375.2 387.91 299.63 298.52 380.1 298.52 380.1 249.01 284.75 249.01 284.75 190.43 362.99 190.43 362.99 140.93 284.75 140.93 284.75 80.38 380.1 80.38 380.1 30.89 139.9 30.89 139.9 80.38 235.25 80.38 235.25 140.93 157.01 140.93 157.01 190.43 235.25 190.43 235.25 249.01 139.9 249.01 139.9 298.52 221.36 298.52 145.78 388.89 70.29 297.06 0.68 297.06 119.31 438.23 174.87 438.23 260.59 335.62 346.44 438.23 401.67 438.23 519.32 298.52 451.01 298.52"/></g></g><rect class="cls-2" width="520" height="469.12"/></svg>