<svg id="Layer_1" data-name="Layer 1" xmlns="http://www.w3.org/2000/svg" viewBox="0 0 518.63 407.34"><defs><style>.cls-1{fill:#fff;}</style></defs><title>EW-logo</title><g id="Layer_2" data-name="Layer 2"><g id="Layer_2-2" data-name="Layer 2-2"><polygon class="cls-1" points="450.33 267.63 374.52 357.02 298.95 267.63 379.42 267.63 379.42 218.13 284.07 218.13 284.07 159.54 362.3 159.54 362.3 110.04 284.07 110.04 284.07 49.49 379.42 49.49 379.42 0 139.22 0 139.22 49.49 234.56 49.49 234.56 110.04 156.33 110.04 156.33 159.54 234.56 159.54 234.56 218.13 139.22 218.13 139.22 267.63 220.68 267.63 145.1 358 69.61 266.17 0 266.17 118.63 407.34 174.18 407.34 259.91 304.73 345.75 407.34 400.99 407.34 518.63 267.63 450.33 267.63"/></g></g></svg>