<?xml version="1.0" encoding="utf-8"?>
<!-- Generator: Adobe Illustrator 21.1.0, SVG Export Plug-In . SVG Version: 6.00 Build 0)  -->
<svg version="1.1" id="Layer_1" xmlns="http://www.w3.org/2000/svg" xmlns:xlink="http://www.w3.org/1999/xlink" x="0px" y="0px"
	 viewBox="0 0 676.4 531.2" style="enable-background:new 0 0 676.4 531.2;" xml:space="preserve">
<title>Asset 2</title>
<g id="Layer_2">
	<g id="Layer_2-2">
		<polygon points="587.3,349 488.4,465.6 389.9,349 494.8,349 494.8,284.5 370.5,284.5 370.5,208.1 472.5,208.1 472.5,143.5 
			370.5,143.5 370.5,64.6 494.8,64.6 494.8,0 181.6,0 181.6,64.6 305.9,64.6 305.9,143.5 203.9,143.5 203.9,208.1 305.9,208.1 
			305.9,284.5 181.6,284.5 181.6,349 287.8,349 189.2,466.9 90.8,347.1 0,347.1 154.7,531.2 227.2,531.2 339,397.4 450.9,531.2 
			523,531.2 676.4,349 		"/>
	</g>
</g>
</svg>
