<svg xmlns="http://www.w3.org/2000/svg" viewBox="0 0 514.58 514.58"><defs><style>.cls-1{fill:#fff;}</style></defs><title>Asset 1</title><g id="Layer_2" data-name="Layer 2"><g id="Layer_1-2" data-name="Layer 1"><path class="cls-1" d="M439.22,75.36A257.29,257.29,0,1,0,75.36,439.22,257.29,257.29,0,1,0,439.22,75.36Zm-8.49,355.38A245.29,245.29,0,1,1,83.84,83.84,245.29,245.29,0,1,1,430.73,430.74Z"/><rect class="cls-1" x="138.73" y="170.7" width="26.22" height="152.07"/><path class="cls-1" d="M234.26,168.42c-15,0-26.22,4.56-31.92,12.77-5.24,7.75-6.84,16.87-6.84,40.81v49.7c0,23.71,1.6,32.83,6.84,40.58,5.7,8.21,16.87,12.77,31.46,12.77s25.76-4.56,31.46-12.77c5.24-7.75,6.84-16.87,6.84-40.58v-4.33H245.89v14.14c0,17.78-2.28,22.34-11.63,22.34-9.8,0-12.54-5.47-12.54-24.85V214.7c0-19.61,2.74-25.08,12.54-25.08,9.35,0,11.63,4.33,11.63,22.34v8.66h26.22v-3.19c0-21.89-1.6-30.32-6.84-37.16C259.57,172.75,248.4,168.42,234.26,168.42Z"/><path class="cls-1" d="M351.91,240.92l-15-13c-10.94-9.35-14.36-15-14.36-23.48S326.6,191,333.44,191c8.21,0,11.86,6.38,11.86,21.2v8.89h25.08V208.32c0-14.82-2.74-24.17-9.12-30.55-6.16-6.16-15.5-9.35-27.13-9.35-24.17,0-36.71,12.77-36.71,38.08,0,11.17,1.82,18,6.16,25.08,4.1,5.93,4.79,6.84,19.15,19.15l14.36,12.54c9.8,8.66,12.08,13,12.08,22.8,0,10.94-4.33,16.42-12.77,16.42-9.35,0-14.14-8-14.14-23.26V266.91H297.19v16.42c0,28.5,12.31,41.72,38.76,41.72,26.22,0,39.9-13.45,39.9-39.22C375.85,265.77,371.74,258,351.91,240.92Z"/></g></g></svg>