<svg id="Layer_1" data-name="Layer 1" xmlns="http://www.w3.org/2000/svg" viewBox="0 0 600 600"><title>Artboard 2</title><path d="M109.45,319.1a29.43,29.43,0,0,1-6.56,1.25l-7.6.85q-1.24.14-3.59.26a16.72,16.72,0,0,1-3.11,0l-.7.08.62,5.53.7-.08a27.68,27.68,0,0,1,6.27-1.22l7.92-.89a29.48,29.48,0,0,1,6.67-.23l.7-.08-.62-5.53Z"/><path d="M101.46,311a33.55,33.55,0,0,1,7.27.39h.7l-.07-4.38h-.7a25.94,25.94,0,0,1-6.33.71l-9.73.16,16.92-12.5L109,291.2a23.32,23.32,0,0,1-2.68.36q-2.2.23-4.06.26l-7.62.12q-1.82,0-4.15-.09a23.05,23.05,0,0,1-3.13-.3h-.7l.07,4.51h.7a13.83,13.83,0,0,1,2.76-.56,32.2,32.2,0,0,1,3.6-.28l8.41-.14L86.63,306.61l.43,5h.7a46.16,46.16,0,0,1,7.19-.53Z"/><path d="M104,274.07l-8.32-1q-3.18-.38-4.75-.7a34,34,0,0,1,1.67-6.05l.07-.6q-1.43-.17-3.22-.55-.65,6.21-1,9.29T87.2,283.7q1.83.06,3.26.23l.07-.6a36.27,36.27,0,0,1-.18-6.21q1.64.07,4.91.46l8.29,1a30.12,30.12,0,0,1,6.08,1.19l.7.08.66-5.46-.7-.08A27,27,0,0,1,104,274.07Z"/><path d="M98.15,258.61l7.88,1.87a29.5,29.5,0,0,1,6.13,2l.69.16,3.53-14.92-3.16-1.37-.14.59a15,15,0,0,1-.1,3.59,35.31,35.31,0,0,1-.67,4.07q-.39,1.67-.63,2.37-1-.15-6.28-1.39l-1.65-.39q.07-.58.61-2.86a18.59,18.59,0,0,1,1.07-3.41l.14-.59-2.33-1.7-1.74,8q-5.57-1.32-7-1.72.11-.73.41-2a26.34,26.34,0,0,1,1.83-5.78l.14-.59L94.39,243l-3.34,14.5.69.16A29.64,29.64,0,0,1,98.15,258.61Z"/><path d="M102.84,235.31l10.78,4a12.79,12.79,0,0,1,4,2.15l.66.24,2-5.34-.66-.24a17.24,17.24,0,0,1-4.68-1.18l-4.17-1.54a3.18,3.18,0,0,0,.22-.5l8.57-3q2.71-.88,3.5-1.06l1.94-5.25-.72-.27a7.23,7.23,0,0,1-2.05,1.68,32.32,32.32,0,0,1-4.76,2.08l-5.25,2a7.73,7.73,0,0,0-.27-5.28,6.36,6.36,0,0,0-3.83-3.35,4.42,4.42,0,0,0-4.73.66,13.36,13.36,0,0,0-3.38,5.56l-1.52,4.32q-.77,2.1-1.14,2.92l.66.24A18.32,18.32,0,0,1,102.84,235.31Zm-1-7.88a4.56,4.56,0,0,1,1.85-2.56,4,4,0,0,1,3.23.15,4.75,4.75,0,0,1,2.8,2.17,4.84,4.84,0,0,1-.19,3.8,14.51,14.51,0,0,1-.72,1.68q-6.91-2.55-7.78-2.94Q101.14,229.36,101.85,227.43Z"/><path d="M114.48,211.94,120.2,215a33.56,33.56,0,0,1,6.16,3.89l.62.33,2.07-3.86-.62-.33a26,26,0,0,1-5.87-2.46L114,208l20.87-2.68,1.62-3.89a23.39,23.39,0,0,1-2.52-1q-2-.87-3.67-1.75l-6.71-3.6Q122,194.2,120,193a23,23,0,0,1-2.58-1.79l-.62-.33-2.13,4,.62.33A13.84,13.84,0,0,1,118,196a32,32,0,0,1,3.28,1.5l7.42,4-19.26,2.45-2.08,4.62.62.33A46.16,46.16,0,0,1,114.48,211.94Z"/><path d="M133.86,188.75q4.51,6.31,4.47,8.34l.57.41,3.15-4.35-.57-.41a11.2,11.2,0,0,1-1.79-1.54q-.57-.65-2.91-3.65.74-1.08,2-2.82t2-2.7q5.64,1.6,6.73,2.39l.57.41,4-5.49-.57-.41a7.07,7.07,0,0,1-2.58.18q-2.9-.2-13.91-3.32-5.9-1.67-6.89-2.38l-2.5,4.27a21.32,21.32,0,0,1,2.26,2.74Q129.35,182.43,133.86,188.75Zm2.82-8.15q1.26.44,1.81.6l-3.25,4.48q-3.47-4.49-5.31-7.13Q133.89,179.6,136.69,180.6Z"/><path d="M138.23,166.12a36.25,36.25,0,0,1,3.42-5.19q1.3,1,3.75,3.2l6.2,5.59a30.14,30.14,0,0,1,4.29,4.47l.52.47,3.68-4.09-.52-.47a27,27,0,0,1-5-3.82l-6.23-5.61q-2.38-2.14-3.48-3.31a34,34,0,0,1,4.85-4l.41-.45q-1.07-1-2.32-2.3-4.11,4.7-6.18,7t-6.33,6.88q1.46,1.1,2.53,2.07Z"/><path d="M158.52,150.42l5.41,5.85a29.46,29.46,0,0,1,4.14,5.24l.48.52,4.09-3.78-.48-.52a29.46,29.46,0,0,1-4.89-4.54l-5.19-5.62q-.85-.92-2.34-2.74a16.7,16.7,0,0,1-1.83-2.52l-.48-.52-4.09,3.78.48.52A27.68,27.68,0,0,1,158.52,150.42Z"/><path d="M178.21,149.54a10.72,10.72,0,0,0,8.5-2.26,11.62,11.62,0,0,0,4.84-7.85,11.82,11.82,0,0,0-2.41-9.06,11.34,11.34,0,0,0-7-4.62q-4.22-.86-8.49,2.29a11.8,11.8,0,0,0-5,8,12.21,12.21,0,0,0,9.54,13.54Zm-6.59-15.62a6.5,6.5,0,0,1,1.06-1.52,11,11,0,0,1,1.77-1.65,6.67,6.67,0,0,1,4.24-1.48,6.75,6.75,0,0,1,3.81,1.3,15.53,15.53,0,0,1,3.26,3.36q3.38,4.58,2.86,7.59a7.5,7.5,0,0,1-2.47,2.94,7.76,7.76,0,0,1-3.39,1.53,5.93,5.93,0,0,1-3.17-.33,10.23,10.23,0,0,1-2.77-1.65,16.3,16.3,0,0,1-2.62-2.88,14.71,14.71,0,0,1-2.06-3.83A7.49,7.49,0,0,1,171.62,133.92Z"/><path d="M194.83,123.76l3.06,5.73a33.52,33.52,0,0,1,3,6.65l.33.62,3.87-2.07-.33-.62a26,26,0,0,1-3.52-5.3l-4.58-8.58,18.85,9.34,3.5-2.34a23.5,23.5,0,0,1-1.55-2.22q-1.21-1.86-2.08-3.49l-3.59-6.72q-.86-1.61-1.81-3.73a22.91,22.91,0,0,1-1.16-2.92l-.33-.62-4,2.13.33.62a13.86,13.86,0,0,1,1.76,2.2,32.16,32.16,0,0,1,1.89,3.07l4,7.42L195,114.29,190.74,117l.33.62A46.14,46.14,0,0,1,194.83,123.76Z"/><path d="M223.18,125.27l5-1.87-.25-.66a11.21,11.21,0,0,1-.64-2.27q-.11-.86-.39-4.65,1.22-.49,3.23-1.23t3.16-1.14q3.8,4.46,4.27,5.72l.24.66,6.36-2.36-.25-.66a7.08,7.08,0,0,1-2.25-1.28q-2.3-1.78-9.73-10.49-4-4.66-4.41-5.81l-4.45,2.17a21.34,21.34,0,0,1,.36,3.54q.11,2.5.36,10.26t-.91,9.42ZM230.71,110q.8,1.07,1.17,1.51l-5.19,1.93q-.39-5.66-.46-8.87Q228.94,107.6,230.71,110Z"/><path d="M246,101.28l2,8.05a29.84,29.84,0,0,1,1,6.28l.17.68L264,112.69l-.24-3.43-.59.14a20.47,20.47,0,0,1-7,2.76q-1.87.45-2.47.53-.64-1.82-1.19-4.09l-2-8.3q-.28-1.15-.68-3.39a16.22,16.22,0,0,1-.35-3l-.17-.68-5.41,1.31.17.68A27.68,27.68,0,0,1,246,101.28Z"/><path d="M280.81,107.63a11.05,11.05,0,0,0,8.08,2.6,12.22,12.22,0,0,0,3.62-.81,16.17,16.17,0,0,0,2.65-1.23q.85-.53,3.14-2.25L297,104.29q-4.39,2.59-6.88,2.74a7.21,7.21,0,0,1-5.69-2.08,9.78,9.78,0,0,1-2.65-6.69,9.9,9.9,0,0,1,.77-4.83,8.83,8.83,0,0,1,2.53-3.3,18,18,0,0,1,2.56-.32,10.06,10.06,0,0,1,3.31.42,15.6,15.6,0,0,1,4.13,2,10.11,10.11,0,0,0,1.57-4,16.6,16.6,0,0,0-7.32-1.2,13.72,13.72,0,0,0-9.1,3.85,10.7,10.7,0,0,0-3.22,8.7A10.94,10.94,0,0,0,280.81,107.63Z"/><path d="M313.56,110.35q5,.35,7.29-1.75t2.69-7.91l.4-5.71q.08-1.15.37-3.2a15,15,0,0,1,.56-2.77l0-.67L320.36,88l0,.7a43.61,43.61,0,0,1,0,7.81q-.36,5.19-.74,7.34a7.56,7.56,0,0,1-1.29,3.34,7.65,7.65,0,0,1-4.06.55,5.17,5.17,0,0,1-3.91-1.72,4.87,4.87,0,0,1-.83-2,18.47,18.47,0,0,1-.08-4.62l.28-3.93a50.26,50.26,0,0,1,1-7.41l0-.7L305.16,87l0,.7a27,27,0,0,1,.06,6.52l-.44,6.32q-.34,4.82,1.74,7.16T313.56,110.35Z"/><path d="M346.88,111.57l-.6-.12a20.47,20.47,0,0,1-7.55-.42q-1.89-.36-2.47-.54.18-1.92.62-4.21l1.62-8.39q.22-1.16.8-3.37a16.27,16.27,0,0,1,.93-2.88l.13-.69-5.47-1.06-.13.69a27.75,27.75,0,0,1-.71,6.35l-1.57,8.14a29.84,29.84,0,0,1-1.71,6.12l-.13.69,15,2.9Z"/><path d="M358.51,97.58q-.35,1.6-1.3,4.76l-2.41,8a30.18,30.18,0,0,1-2.21,5.79l-.2.67,5.27,1.59.2-.67a27,27,0,0,1,1.32-6.15l2.42-8q.92-3.06,1.5-4.56a34,34,0,0,1,5.68,2.68l.58.18q.41-1.38,1.09-3.08-6-1.71-9-2.6t-8.92-2.78q-.37,1.79-.79,3.17l.58.18A36.17,36.17,0,0,1,358.51,97.58Z"/><path d="M377.41,126.27q4.59,2,7.45.85t5.23-6.52l2.33-5.23q.47-1.05,1.44-2.88a15,15,0,0,1,1.47-2.41l.27-.61-4.18-1.86-.29.64a43.7,43.7,0,0,1-2.7,7.33q-2.12,4.75-3.21,6.65a7.55,7.55,0,0,1-2.36,2.7,7.64,7.64,0,0,1-4-.87,5.17,5.17,0,0,1-3.08-2.95,4.89,4.89,0,0,1-.08-2.21,18.42,18.42,0,0,1,1.51-4.37l1.6-3.6a50.17,50.17,0,0,1,3.44-6.63l.29-.64-5-2.24-.29.64A27,27,0,0,1,375,108.2L372.47,114q-2,4.42-.81,7.33T377.41,126.27Z"/><path d="M393.25,132.84l-.37.6,4.86,3,.37-.6a17.25,17.25,0,0,1,2.07-4.36l2.33-3.79a3.15,3.15,0,0,0,.45.31l1.25,9q.33,2.83.36,3.64l4.77,2.93.4-.65a7.2,7.2,0,0,1-1.25-2.34,32.18,32.18,0,0,1-1.11-5.07l-.88-5.54a7.73,7.73,0,0,0,5.23.77,6.36,6.36,0,0,0,4-3.1,4.42,4.42,0,0,0,.28-4.77,13.37,13.37,0,0,0-4.79-4.4l-3.93-2.34q-1.91-1.17-2.64-1.69l-.37.6a18.28,18.28,0,0,1-2.16,4.57l-6,9.79A12.78,12.78,0,0,1,393.25,132.84Zm14.71-14q.34.17,2.1,1.25a4.56,4.56,0,0,1,2.15,2.31,4,4,0,0,1-.78,3.14,4.75,4.75,0,0,1-2.68,2.32,4.84,4.84,0,0,1-3.69-.93,14.41,14.41,0,0,1-1.5-1Q407.41,119.68,408,118.89Z"/><path d="M412,145.44l4.16,3.4.45-.55a11.24,11.24,0,0,1,1.64-1.7q.69-.53,3.81-2.69,1,.81,2.7,2.16t2.58,2.15q-1.92,5.54-2.77,6.58l-.45.55,5.25,4.29.45-.55a7.07,7.07,0,0,1,0-2.59q.37-2.88,4.13-13.7,2-5.8,2.78-6.74l-4.12-2.75a21.29,21.29,0,0,1-2.87,2.1q-2.1,1.36-8.67,5.5t-8.58,4Zm19.43-7.84q-1.27,3.88-2.43,6.61-.51,1.23-.71,1.78l-4.29-3.5Q428.67,139.29,431.42,137.6Z"/><path d="M432.86,163.28l10.65,11,2.84-1.95-.42-.44a20.46,20.46,0,0,1-5.95-4.66q-1.34-1.38-1.71-1.86,1.25-1.47,2.92-3.1l6.13-5.95q.85-.82,2.58-2.3a16.19,16.19,0,0,1,2.42-1.83l.5-.49-3.88-4-.5.49a27.67,27.67,0,0,1-4.22,4.8l-6,5.77a29.84,29.84,0,0,1-4.91,4Z"/><path d="M461.36,195.93a5.76,5.76,0,0,0,5.44-.9,7.42,7.42,0,0,0,2.05-2.15,3.75,3.75,0,0,0,.45-1.24q.15-.77.22-1.17a5.56,5.56,0,0,0,0-1.29q-.07-.89-.1-1.13t-.2-1.16q-.17-.92-.2-1.16t-.19-1.09q-.16-.85-.34-1.93a7.6,7.6,0,0,1,0-2.18,2.55,2.55,0,0,1,1.19-1.83,2.9,2.9,0,0,1,1.84-.65,4.82,4.82,0,0,1,1.72,1.65,7.31,7.31,0,0,1,1.09,3.25,15.86,15.86,0,0,1-.05,4.23,12.45,12.45,0,0,0,4.46-1.09,18.17,18.17,0,0,0-2.74-6.78,10.3,10.3,0,0,0-4.44-3.84,5,5,0,0,0-5,.67,5.54,5.54,0,0,0-2.45,4.92,25.49,25.49,0,0,0,.51,3.64q.48,2.53.57,3.39a5.29,5.29,0,0,1,.07,1.25c0,.27-.08.61-.14,1a2.84,2.84,0,0,1-1.27,1.77,4.14,4.14,0,0,1-2.4.92,5.48,5.48,0,0,1-2.17-1.9,7.22,7.22,0,0,1-1.1-3.5,13.89,13.89,0,0,1,.33-4.43,7.16,7.16,0,0,0-4.55,1,13.12,13.12,0,0,0,2.38,7.4A10.8,10.8,0,0,0,461.36,195.93Z"/><path d="M473.3,205.18a30.15,30.15,0,0,1-5.66,2.52L467,208l2.59,4.85.62-.33a27,27,0,0,1,5.29-3.41l7.39-4q2.82-1.51,4.29-2.15a34,34,0,0,1,2.11,5.91l.29.54q1.27-.68,3-1.4-3-5.46-4.49-8.19t-4.32-8.29q-1.53,1-2.8,1.68l.29.54a36.16,36.16,0,0,1,3.71,5q-1.38.88-4.29,2.44Z"/><path d="M483.17,220.26q-4.51,1.72-5.76,4.6t.54,7.57q1.79,4.69,4.66,5.88t8.31-.89l5.35-2q1.08-.41,3.06-1a14.94,14.94,0,0,1,2.75-.65l.63-.24-1.63-4.28-.66.25a43.66,43.66,0,0,1-7.1,3.26q-4.86,1.85-7,2.42a7.56,7.56,0,0,1-3.58.23,7.65,7.65,0,0,1-2.21-3.46,5.17,5.17,0,0,1-.09-4.27A4.9,4.9,0,0,1,482,226a18.46,18.46,0,0,1,4.16-2l3.68-1.4a50.18,50.18,0,0,1,7.13-2.24l.66-.25-2-5.14-.66.25a27,27,0,0,1-5.89,2.79Z"/><path d="M490.89,247.43a26.88,26.88,0,0,1-6.3.87l-.69.16.55,2.43,1.27,5.75.13.59a13.7,13.7,0,0,0,3.55,7.1,9.52,9.52,0,0,0,4.79,2.46,14.25,14.25,0,0,0,6-.15q5.21-1.18,7-4.75t.43-9.74l-1.5-6.19q-.24-1.06-.49-2.45l-.69.16a27.08,27.08,0,0,1-6.09,1.94Zm14.38,4.65q1,4.34-.52,6.63T498.67,262q-5.52,1.25-8.18-.34-1.21-1.3-2.1-5.2-.35-1.53-.65-3.59,1-.33,7.72-1.85l1.81-.41q5.77-1.31,7.29-1.58Z"/><path d="M496.59,275.62a29.46,29.46,0,0,1-6.67.24l-.7.08.62,5.53.7-.08a29.46,29.46,0,0,1,6.56-1.25l7.6-.86q1.24-.14,3.59-.26a16.68,16.68,0,0,1,3.11,0l.7-.08-.62-5.53-.7.08a27.67,27.67,0,0,1-6.27,1.22Z"/><path d="M497.71,290.11a29.51,29.51,0,0,1-6.44-.42h-.7l.3,15.33,3.4.54V305a15,15,0,0,1-.81-3.5,35.25,35.25,0,0,1-.37-4.11q0-1.71,0-2.45,1.05-.12,6.43-.22l1.7,0q.07.57.12,2.93a18.61,18.61,0,0,1-.18,3.57v.61l2.68,1.07-.32-8.22q5.73-.11,7.2-.08.08.73.11,2a26.39,26.39,0,0,1-.33,6.06v.61l2.83.9L513,289.26h-.7a29.7,29.7,0,0,1-6.45.67Z"/><path d="M507.32,312.83a5.54,5.54,0,0,0-5.05,2.18,25.53,25.53,0,0,0-2,3.11q-1.26,2.24-1.75,3a5.25,5.25,0,0,1-.76,1l-.76.68a2.84,2.84,0,0,1-2.11.54,4.13,4.13,0,0,1-2.43-.85,5.49,5.49,0,0,1-.43-2.85,7.24,7.24,0,0,1,1.42-3.38,13.86,13.86,0,0,1,3.1-3.17,7.16,7.16,0,0,0-4.13-2.17,13.12,13.12,0,0,0-2.95,7.19,10.8,10.8,0,0,0,1.07,6.57,5.76,5.76,0,0,0,4.74,2.82,7.43,7.43,0,0,0,3-.32,3.75,3.75,0,0,0,1.14-.66l.92-.75a5.61,5.61,0,0,0,.83-1q.52-.72.65-.93t.6-1q.46-.81.6-1c.09-.14.27-.46.56-1s.61-1.06,1-1.69a7.56,7.56,0,0,1,1.37-1.7,2.55,2.55,0,0,1,2.09-.63,2.9,2.9,0,0,1,1.83.69,4.83,4.83,0,0,1,.25,2.37,7.31,7.31,0,0,1-1.26,3.19,15.89,15.89,0,0,1-2.77,3.2,12.43,12.43,0,0,0,4.11,2,18.19,18.19,0,0,0,2.28-6.95,10.3,10.3,0,0,0-.92-5.8A5,5,0,0,0,507.32,312.83Z"/><path d="M126.33,397.09q.72-.37,2.06-.95a10.54,10.54,0,0,1,1.87-.67l.42-.22-1.48-2.86-.44.23a30.64,30.64,0,0,1-4.7,2.83q-3.25,1.68-4.68,2.24a5.31,5.31,0,0,1-2.48.44,5.37,5.37,0,0,1-1.81-2.24,3.64,3.64,0,0,1-.4-3,3.44,3.44,0,0,1,.92-1.25,13,13,0,0,1,2.75-1.74l2.46-1.27a35.33,35.33,0,0,1,4.8-2.12l.44-.23-1.77-3.44-.44.23a18.94,18.94,0,0,1-3.89,2.42l-4,2q-3,1.56-3.67,3.66t1,5.25q1.62,3.14,3.72,3.74t5.73-1.28Z"/><path d="M138.35,412.54a16.17,16.17,0,0,1,2-1l.42-.27L139,408.62l-.42.27a9.7,9.7,0,0,1-1.44,1.36,22.56,22.56,0,0,1-2,1.51l-5,3.21,5-12.69-2.14-2.85-.42.27a32.4,32.4,0,0,1-4.09,3l-3.84,2.48a23.56,23.56,0,0,1-4.49,2.47l-.42.27,1.67,2.59.42-.27a18.24,18.24,0,0,1,3.51-2.78l5.74-3.71-5.44,13.75,1.85,2.32a16.37,16.37,0,0,1,1.47-1.21q1.23-1,2.33-1.66l4.5-2.91Q136.92,413.33,138.35,412.54Z"/><path d="M144.13,420.2a11.77,11.77,0,0,1,1.89-1.1l.4-.3-2.36-3.12-.39.3a19.45,19.45,0,0,1-3.35,3l-4.47,3.38a20.71,20.71,0,0,1-3.95,2.54l-.39.3,2.36,3.12.39-.3a20.72,20.72,0,0,1,3.51-3.11l4.29-3.25Q142.75,421.12,144.13,420.2Z"/><path d="M158.81,434.25l.37-.33L156.64,431l-.37.33a16.19,16.19,0,0,1-3.85,2.2l-7.88,3.36,4.39-7.76a15.41,15.41,0,0,1,2.43-3.41l.37-.33-3-3.46-.37.33q.13,1.11-1.68,4.64-5,9.65-5.82,10.44l2.39,2.22q1.1-.48,8.69-3.57Q157.25,434,158.81,434.25Z"/><path d="M159.83,443.9q2.8-2.9,3.55-3.61.4.33,1.07,1a18.52,18.52,0,0,1,2.84,3.18l.31.3,1.86-1-7.57-7.22-.34.36a20.84,20.84,0,0,1-2.88,3.54l-4,4.1a20.72,20.72,0,0,1-3.42,3l-.34.36,7.75,7.49,2-1.42-.31-.3a10.58,10.58,0,0,1-2.14-1.35,24.77,24.77,0,0,1-2.22-1.86q-.87-.84-1.21-1.23.47-.58,3.09-3.3l.83-.86q.32.25,1.51,1.4a13.14,13.14,0,0,1,1.68,1.87l.31.3,1.86-.8Z"/><path d="M179.54,457.31a3.11,3.11,0,0,0,.65-3.29,9.4,9.4,0,0,0-2.92-3.52l-2.52-2q-1.22-1-1.68-1.43l-.31.38a12.88,12.88,0,0,1-1.94,3l-5.11,6.25a9,9,0,0,1-2.34,2.15l-.31.38,3.1,2.54.31-.38a12.08,12.08,0,0,1,1.86-2.84l2-2.42a2.18,2.18,0,0,0,.28.26l0,6.38q0,2-.09,2.57l3,2.49.34-.42a5.08,5.08,0,0,1-.65-1.75,22.63,22.63,0,0,1-.29-3.64l-.09-3.94a5.44,5.44,0,0,0,3.57,1A4.47,4.47,0,0,0,179.54,457.31Zm-4.91-.44a3.4,3.4,0,0,1-2.48-1,10.27,10.27,0,0,1-1-.86q3.28-4,3.74-4.5.22.15,1.35,1.07a3.21,3.21,0,0,1,1.28,1.81,2.79,2.79,0,0,1-.84,2.12A3.34,3.34,0,0,1,174.62,456.86Z"/><path d="M187.8,460.78a3.39,3.39,0,0,1,1.55.65,5.14,5.14,0,0,1,1.54,1.85,11.16,11.16,0,0,1,1,2.79,8.75,8.75,0,0,0,2.65-1.84,12.78,12.78,0,0,0-3.51-3.76,7.24,7.24,0,0,0-3.88-1.4,3.5,3.5,0,0,0-3.11,1.7,3.9,3.9,0,0,0-.37,3.85,17.86,17.86,0,0,0,1.25,2.26q1,1.54,1.23,2.08a3.68,3.68,0,0,1,.36.81l.16.7a2,2,0,0,1-.38,1.48,2.91,2.91,0,0,1-1.34,1.21,3.86,3.86,0,0,1-1.91-.7,5.08,5.08,0,0,1-1.6-2,9.74,9.74,0,0,1-.9-3,5,5,0,0,0-2.73,1.81,9.23,9.23,0,0,0,3.43,4.25,7.6,7.6,0,0,0,4.41,1.57,4.05,4.05,0,0,0,3.34-2,5.22,5.22,0,0,0,.8-1.93,2.64,2.64,0,0,0,0-.93l-.15-.82a4,4,0,0,0-.32-.85q-.27-.56-.35-.72l-.43-.71-.43-.71-.4-.67-.71-1.18a5.33,5.33,0,0,1-.58-1.42,1.79,1.79,0,0,1,.32-1.5A2,2,0,0,1,187.8,460.78Z"/><path d="M199.4,466.75a19.42,19.42,0,0,1-2,4l-2.85,4.82a20.73,20.73,0,0,1-2.69,3.84l-.25.43,3.37,2,.25-.43a20.65,20.65,0,0,1,2.07-4.21l2.74-4.63q.45-.76,1.38-2.13a11.75,11.75,0,0,1,1.33-1.74l.25-.43-3.37-2Z"/><path d="M206.35,470.24q-.48,1.19-.94,2.1l.38.19a25.44,25.44,0,0,1,4.15,1.38q-.44,1.06-1.49,3.13l-2.66,5.23a21.2,21.2,0,0,1-2.25,3.73l-.22.44,3.45,1.75.22-.44a19,19,0,0,1,1.68-4.09l2.67-5.25q1-2,1.61-3a23.9,23.9,0,0,1,3.59,2.56l.38.19q.46-.9,1.14-2-3.94-1.93-5.89-2.92T206.35,470.24Z"/><path d="M229.17,481.48a5.47,5.47,0,0,1-1.06,1.45q-.83.89-4,3.71-.33-2.76-.45-4.64a6.54,6.54,0,0,1,.21-2.71l.19-.46-3.85-1.58-.19.46a5.16,5.16,0,0,1,.65,2q.33,1.62.54,3.43l.48,4.63-.85,2.08a16.38,16.38,0,0,1-1.78,3.45l-.19.46,3.37,1.39.19-.46a13.58,13.58,0,0,1,.57-2q.5-1.49.81-2.23l.62-1.5q3.86-3.52,4.92-4.4a8.38,8.38,0,0,1,2.87-1.79l.19-.46-3-1.24Z"/><path d="M249.68,487.34a8.3,8.3,0,0,0-6.56.73,8.58,8.58,0,0,0-3.29,11.17,7.54,7.54,0,0,0,5,3.69,8.17,8.17,0,0,0,6.44-.76,8.31,8.31,0,0,0,3.94-5.29,8,8,0,0,0-.51-5.87A7.35,7.35,0,0,0,249.68,487.34Zm2,9.25q-1,3.87-2.93,4.89a5.28,5.28,0,0,1-2.69-.08,5.46,5.46,0,0,1-2.32-1.2,4.17,4.17,0,0,1-1.2-1.89,7.18,7.18,0,0,1-.3-2.25,11.44,11.44,0,0,1,.44-2.7,10.32,10.32,0,0,1,1.21-2.81,5.26,5.26,0,0,1,1.63-1.77,4.56,4.56,0,0,1,1.3-.08,7.71,7.71,0,0,1,1.68.26,4.68,4.68,0,0,1,2.67,1.69,4.74,4.74,0,0,1,.94,2.67A10.91,10.91,0,0,1,251.72,496.58Z"/><path d="M261.6,491a20.9,20.9,0,0,1-.43,4.54l-1,5.6a20.73,20.73,0,0,1-1.17,4.38l-.09.49,3.88.69.09-.49a19.83,19.83,0,0,1,.45-4.54l.37-2.06q.41,0,1.6.24a11.28,11.28,0,0,1,2.22.63l.42.08,1.19-1.94-5.11-.8q.76-4.25.94-4.88.52,0,2.19.35a10.84,10.84,0,0,1,2.85.88l.42.08,1-2.06-9.76-1.68Z"/><path d="M292.7,494.63a13.59,13.59,0,0,1,.13,2.09q0,1.57,0,2.4l-.09,1.71-6.74-.35.09-1.71q0-.81.23-2.38a17.38,17.38,0,0,1,.32-2.08l0-.49-3.84-.2,0,.49a20.42,20.42,0,0,1,.1,4.53l-.3,5.71a20.44,20.44,0,0,1-.57,4.5l0,.49,3.84.2,0-.49a17.45,17.45,0,0,1-.1-2.1q0-1.58,0-2.36l.11-2.16,2.74.12q1.48.08,4,.25l-.11,2.13q0,.81-.23,2.37a13.56,13.56,0,0,1-.34,2.07l0,.49,3.86.2,0-.49a20.45,20.45,0,0,1-.1-4.53l.3-5.71a20.46,20.46,0,0,1,.57-4.5l0-.49-3.86-.2Z"/><path d="M315.21,507.67a68.75,68.75,0,0,1-4.22-9.13,23.51,23.51,0,0,1-1.68-4.84l-3.45.48a15,15,0,0,1-.53,2.44q-.47,1.7-2,6.94t-2.66,6.1l0,.49,3.78-.15,0-.49a7.86,7.86,0,0,1,.07-1.66q.11-.6.75-3.19l2.43-.12,2.36-.07a21.2,21.2,0,0,1,1.61,4.75l0,.49,4.77-.19,0-.49A5,5,0,0,1,315.21,507.67ZM305.63,503q1-3.87,1.63-6,1.14,2.63,1.81,4.61.3.89.46,1.27Z"/><path d="M335.15,491.24l.07.49a24.77,24.77,0,0,1,.19,2.65,33.53,33.53,0,0,1-.35,4.78q-.13,1-.4,2.75t-.33,2.24q-3.2-6.89-4-8.94a31.59,31.59,0,0,1-1.1-3.13l-3.41.48q.36,3.24-1.13,13l-3.45-7.85A13.21,13.21,0,0,1,320,494l-.09-.62-4.1.58.07.49a4.67,4.67,0,0,1,.89,1.15q.48.8,1.47,2.86,4.27,8.87,4.6,10.74l3.36-.79q1-8,1.15-9.2t.44-2.58l1,2.09a87.66,87.66,0,0,1,3.81,9.12l3.34-.79q.52-4.23,1.34-9.22a26.16,26.16,0,0,1,1.66-6.61l-.07-.49Z"/><path d="M356.42,500.47a68.83,68.83,0,0,1-6-8.1,23.49,23.49,0,0,1-2.61-4.41l-3.28,1.16a15.08,15.08,0,0,1,0,2.5q-.12,1.76-.57,7.2t-1.39,6.51l.12.48,3.67-.9-.12-.48a7.86,7.86,0,0,1-.26-1.64q0-.61.1-3.28l2.35-.6,2.3-.54a21.27,21.27,0,0,1,2.53,4.34l.12.48L358,502l-.12-.48A5,5,0,0,1,356.42,500.47ZM346.1,497.8q.18-4,.39-6.24,1.65,2.35,2.69,4.16.48.81.7,1.15Z"/><path d="M364.28,494.53l-1.65-5.12q-.27-.84-.68-2.44a11.72,11.72,0,0,1-.42-2.15l-.15-.47-3.73,1.2.15.47a19.44,19.44,0,0,1,1.72,4.15l1.72,5.33a20.73,20.73,0,0,1,1.09,4.57l.15.47,3.73-1.2-.15-.47A20.68,20.68,0,0,1,364.28,494.53Z"/><path d="M370.11,484.72a3.44,3.44,0,0,1-.25-.53,6.19,6.19,0,0,1-.17-3l-1.48.15a7.76,7.76,0,0,0-.33,4.5,2.78,2.78,0,0,0,.55.95,5.55,5.55,0,0,0,1.33,1,1.76,1.76,0,0,0,.5.1,4.1,4.1,0,0,0,.87-.82,4.83,4.83,0,0,0,.68-1.06l-.11-.34A3.61,3.61,0,0,1,370.11,484.72Z"/><path d="M382.33,487.59l-2.13-4.94q-.35-.81-.91-2.36a11.76,11.76,0,0,1-.62-2.1l-.2-.45-3.6,1.55.2.45a19.43,19.43,0,0,1,2.1,4l2.22,5.15a20.75,20.75,0,0,1,1.52,4.44l.2.45,3.6-1.55-.2-.45A20.7,20.7,0,0,1,382.33,487.59Z"/><path d="M407.61,478.25A68.83,68.83,0,0,1,399.7,472a23.47,23.47,0,0,1-3.7-3.55l-2.86,2a15,15,0,0,1,.64,2.42q.35,1.73,1.38,7.09t.4,6.64l.24.43,3.29-1.85-.24-.43a7.85,7.85,0,0,1-.69-1.51q-.17-.59-.78-3.19.79-.47,2.11-1.21t2.07-1.14a21.25,21.25,0,0,1,3.59,3.5l.24.43,4.16-2.34-.24-.43A5,5,0,0,1,407.61,478.25Zm-10.66.19q-.89-3.89-1.29-6.11,2.21,1.83,3.71,3.29.68.65,1,.92Z"/><path d="M414.47,470.15l-3.26-4.91q-1.25-1.87-1.79-2.86a23.87,23.87,0,0,1,4-1.87l.36-.24q-.56-.84-1.18-2-3.62,2.48-5.44,3.69t-5.51,3.58q.8,1,1.36,1.85l.36-.24a25.48,25.48,0,0,1,3.24-2.93q.71.91,2,2.84l3.25,4.89a21.23,21.23,0,0,1,2.14,3.79l.27.41,3.22-2.14-.27-.41A19,19,0,0,1,414.47,470.15Z"/><path d="M438.2,446.74q-2.68-2.69-3.62-3.77t-1.23-1.45l-.33-.37L430.39,444q.51.86,1.87,3.89t3.32,8.09q-6.8-3.56-8.85-4.8t-2.92-1.9l-2.61,2.66.33.37q.79.77,2,2.13a72.8,72.8,0,0,1,7.16,9.52l.33.37,2.32-2-.33-.37q-1.22-1.3-2.94-3.27t-4.13-5.13q10,5.38,10.72,6.18l1.88-2q-1.57-3.38-4.56-11a72.23,72.23,0,0,1,5.48,5.67q1.09,1.26,1.91,2.3l.33.37,2.8-2.44-.33-.37Q440.89,449.43,438.2,446.74Z"/><path d="M456.35,437.38a68.68,68.68,0,0,1-9.41-3.54,23.53,23.53,0,0,1-4.59-2.27l-2.12,2.76a15,15,0,0,1,1.33,2.11q.86,1.54,3.45,6.34t2.38,6.21l.36.34,2.58-2.76-.36-.34a7.86,7.86,0,0,1-1.11-1.23q-.34-.51-1.71-2.8.62-.69,1.65-1.79t1.63-1.71A21.29,21.29,0,0,1,454.9,441l.36.34,3.26-3.48-.36-.34A5,5,0,0,1,456.35,437.38Zm-10.11,3.39q-2-3.44-3.08-5.44,2.66,1.08,4.52,2,.84.42,1.21.58Z"/><path d="M466.13,420.48l-4.23-3.28q-1-.79-2.23-1.87a16.13,16.13,0,0,1-1.58-1.54l-.39-.3L455.75,416l.39.3a9.73,9.73,0,0,1,1.76.91,22.49,22.49,0,0,1,2.1,1.43l4.68,3.63L451,421.7l-2,3,.39.3a32.56,32.56,0,0,1,4.18,2.87l3.61,2.8a23.54,23.54,0,0,1,3.82,3.41l.39.3,1.89-2.44-.39-.3a18.25,18.25,0,0,1-3.78-2.39L453.75,425l14.78.58,1.58-2.51a16.43,16.43,0,0,1-1.63-1Q467.16,421.28,466.13,420.48Z"/><path d="M475.18,400.16a8,8,0,0,0-5.77-1.22,7.35,7.35,0,0,0-5,3.69,8.3,8.3,0,0,0-1.21,6.49,8.58,8.58,0,0,0,9.73,6.4,7.53,7.53,0,0,0,5-3.66,8.17,8.17,0,0,0,1.15-6.38A8.31,8.31,0,0,0,475.18,400.16Zm1.68,10A5.45,5.45,0,0,1,475,412a4.18,4.18,0,0,1-2.16.6,7.19,7.19,0,0,1-2.24-.37,11.45,11.45,0,0,1-2.46-1.21,10.3,10.3,0,0,1-2.33-2,5.27,5.27,0,0,1-1.22-2.08,4.59,4.59,0,0,1,.3-1.27,7.75,7.75,0,0,1,.73-1.53,4.69,4.69,0,0,1,2.39-2.06,4.75,4.75,0,0,1,2.83-.13,10.89,10.89,0,0,1,3,1.36q3.39,2.13,3.83,4.23A5.29,5.29,0,0,1,476.86,410.14Z"/><path d="M488.63,387.94a68.81,68.81,0,0,1-10-.76,23.47,23.47,0,0,1-5-.89l-1.26,3.24a15.09,15.09,0,0,1,1.87,1.65q1.25,1.24,5.09,5.12t4,5.29l.44.22,1.71-3.37-.44-.22a7.85,7.85,0,0,1-1.41-.87q-.47-.39-2.42-2.21.4-.83,1.08-2.18t1.09-2.1a21.25,21.25,0,0,1,4.94.91l.44.22,2.15-4.26-.44-.22A5,5,0,0,1,488.63,387.94ZM479.87,394q-2.9-2.73-4.48-4.36,2.86.29,4.91.67l1.33.22Z"/><path d="M192.64,244.38q2.44,9.42,2.43,33v43.83q0,25.16-2.43,34.58v1.14h21.59v-1.14q-1-3.73-1.7-15.34t-.73-17.61V279q0-6.16.73-18.5t1.7-16.07v-1.14H192.64Z"/><path d="M286.91,345.35q-16.72,0-28-13T247.62,296q0-14.77,5.44-25.32A47.56,47.56,0,0,1,266.78,254a56.34,56.34,0,0,1,11.36-1.14q19.48,0,36.2,13.47a44.16,44.16,0,0,0,6.82-17.21,68.13,68.13,0,0,0-32-7.79q-25.49,0-42.69,16.64T229.28,301q0,26.46,14.85,42.21t36,15.75a51.78,51.78,0,0,0,22.56-5q5.19-2.6,9.33-5t11.61-8l-4.38-6.66Q299.08,345.35,286.91,345.35Z"/><path d="M396.15,299.65a63.85,63.85,0,0,0-11-7q-6-3-12-5.52t-11-5.2a24.39,24.39,0,0,1-8.12-6.74,16.54,16.54,0,0,1-3.08-10.31,16.8,16.8,0,0,1,3.41-10.63q4.71-2.59,12.5-2.6a37.23,37.23,0,0,1,16.48,4.3,57.94,57.94,0,0,1,15.34,11,74.51,74.51,0,0,0,5.85-18.18Q388.36,241.3,373,241.3t-25.49,7.3q-10.15,7.3-10.15,22.24a28.89,28.89,0,0,0,4.14,15.58,29.78,29.78,0,0,0,10.23,10.23q6.09,3.57,13.31,7.06T378.38,310a28.89,28.89,0,0,1,10.23,7.87q4.14,5,4.14,13t-4.06,12.82a26.82,26.82,0,0,1-14.45,3.73q-8.44,0-17.69-5A53.51,53.51,0,0,1,340.8,329.6,35.66,35.66,0,0,0,335,348.27a55.48,55.48,0,0,0,33,10.39q18.34,0,28.89-8.44t10.55-24.84a35.39,35.39,0,0,0-3.08-15.18A28.7,28.7,0,0,0,396.15,299.65Z"/><path d="M471.5,299.5C471.5,204.93,394.57,128,300,128S128.5,204.93,128.5,299.5,205.43,471,300,471,471.5,394.07,471.5,299.5ZM300,466.8c-92.25,0-167.3-75.05-167.3-167.3S207.75,132.2,300,132.2s167.3,75.05,167.3,167.3S392.25,466.8,300,466.8Z"/><path d="M300,63.9C170.09,63.9,64.4,169.59,64.4,299.5S170.09,535.1,300,535.1,535.6,429.41,535.6,299.5,429.91,63.9,300,63.9Zm0,467C172.4,530.9,68.6,427.1,68.6,299.5S172.4,68.1,300,68.1,531.4,171.9,531.4,299.5,427.6,530.9,300,530.9Z"/><path d="M470.49,383.37q-.2.58-.31.85l-1,2.38a11.92,11.92,0,0,1-1.19,2.23l-.07.17,1.85,1.29,1.14-3a21.81,21.81,0,0,1,1.63-3.32l.07-.17-1.83-1.28Q470.69,382.79,470.49,383.37Z"/></svg>