<?xml version="1.0" encoding="utf-8"?>
<!-- Generator: Adobe Illustrator 21.1.0, SVG Export Plug-In . SVG Version: 6.00 Build 0)  -->
<svg version="1.1" id="Layer_1" xmlns="http://www.w3.org/2000/svg" xmlns:xlink="http://www.w3.org/1999/xlink" x="0px" y="0px"
	 viewBox="0 0 86.7 86.8" style="enable-background:new 0 0 86.7 86.8;" xml:space="preserve">
<title>Asset 1</title>
<g id="Layer_2">
	<g id="Layer_1-2">
		<path d="M75.4,43.4c0,17.7-14.4,32-32.1,32s-32-14.4-32-32.1c0-17.7,14.4-32,32.1-32C61.1,11.3,75.4,25.7,75.4,43.4
			C75.4,43.4,75.4,43.4,75.4,43.4 M43.3,0c24,0,43.5,19.4,43.5,43.3c0,24-19.4,43.5-43.3,43.5S0,67.5,0,43.5c0,0,0,0,0-0.1
			C0,19.5,19.4,0,43.3,0z M43.3,85.3c23.2,0,42-18.7,42-41.8s-18.7-42-41.8-42c-23.2,0-42,18.7-42,41.8c0,0,0,0.1,0,0.1
			C1.5,66.6,20.2,85.3,43.3,85.3z M5.2,36.3l2.1,0.5c0.3,0.1,0.5,0.1,0.8,0.1c0.2,0,0.5-0.1,0.7-0.2c0.2-0.1,0.4-0.3,0.6-0.5
			c0.2-0.3,0.3-0.6,0.4-1c0.1-0.3,0.1-0.7,0.1-1c0-0.5-0.3-1-0.8-1.3c-0.2-0.1-0.5-0.2-0.7-0.3l-2.1-0.5c0,0-0.1-0.1-0.1-0.1
			c0-0.1,0-0.1,0-0.2H6l-0.5,1.6h0.1l0.1-0.1c0,0,0.1,0,0.2,0l2.4,0.6c0.2,0,0.4,0.2,0.5,0.4c0.1,0.5,0,0.9-0.3,1.3
			c-0.2,0.1-0.4,0.2-0.6,0.1l-2.4-0.6c-0.1,0-0.1,0-0.1-0.1c0,0,0-0.1,0-0.1H5.1l-0.3,1.6h0.1c0,0,0-0.1,0.1-0.1
			C5,36.3,5.1,36.3,5.2,36.3L5.2,36.3z M12.4,27.3l-3.6-1.6c-0.1,0-0.1-0.1-0.1-0.1c0-0.1,0-0.1,0-0.2H8.6l-0.7,1.5h0.1
			c0-0.1,0.1-0.1,0.1-0.1c0.1,0,0.1,0,0.2,0l1.9,0.8l-0.9,0.3L8.5,28l-0.6,0.2c-0.1,0-0.2,0.1-0.3,0.1c-0.1,0-0.1-0.1-0.1-0.1
			c0,0,0-0.1,0-0.1l-0.1,0L6.6,30h0.1c0-0.1,0.1-0.1,0.1-0.1c0,0,0.1,0,0.2,0l3.6,1.6c0.1,0,0.1,0.1,0.1,0.1c0,0.1,0,0.1,0,0.2
			l0.1,0l0.6-1.5l-0.1,0c0,0.1-0.1,0.1-0.1,0.1c-0.1,0-0.1,0-0.2,0l-2.5-1.1l0,0c0.4-0.1,0.8-0.2,1.2-0.3l1.1-0.3l0.8-0.2
			c0.1,0,0.3,0,0.4,0c0,0,0.1,0.1,0.1,0.1c0,0.1,0,0.1-0.1,0.2H12l0.8-1.5h-0.1c0,0.1-0.1,0.1-0.1,0.1
			C12.5,27.4,12.4,27.3,12.4,27.3C12.4,27.3,12.4,27.3,12.4,27.3L12.4,27.3z M11.1,21.1l0.1,0.1l0.1-0.1c0,0,0.1,0,0.1,0
			c0.1,0,0.2,0,0.4,0.1l3.3,1.2l0.3,0.1c0,0,0.1,0.1,0.1,0.1c0,0,0,0.1-0.1,0.1l0.1,0.1l1.2-1.5l-0.1-0.1c0,0-0.1,0.1-0.1,0.1
			c0,0-0.1,0-0.1,0c-0.1-0.1-0.1-0.2-0.2-0.3c-0.1-0.2-2-3.2-2-3.3c0,0,0-0.1,0-0.1c0,0,0-0.1,0-0.1L14,17.5l-1,1.2l0.1,0.1
			c0,0,0.1-0.1,0.1-0.1c0,0,0.1,0,0.1,0c0.1,0.1,0.1,0.2,0.2,0.3l1.3,2.1l0,0l-2.4-0.9L12.2,20c0,0,0-0.1,0-0.1c0,0,0,0,0,0l0.1-0.1
			l-0.1-0.1L11.1,21.1z M20.4,16.3L18.4,18l-0.7-0.7l1.2-1.1c0,0,0.1,0,0.1,0c0,0,0.1,0,0.2,0.1l0.1-0.1l-0.9-1l-0.1,0.1
			c0.1,0,0.1,0.1,0.1,0.2c0,0,0,0.1,0,0.1l-1.3,1.2l-0.6-0.6l2-1.9c0,0,0.1,0,0.1,0c0.1,0,0.1,0,0.2,0.1l0.1-0.1l-0.9-1L18,13.4
			c0.1,0.1,0.1,0.1,0.1,0.2c0,0,0,0.1-0.1,0.1l-3.1,2.9l0.1,0.1l0.2-0.1c0.1,0,0.1,0,0.2,0l2.7,2.8c0,0.1,0.1,0.1,0,0.2
			c0,0.1-0.1,0.1-0.1,0.2l0.1,0.1l3-2.9c0,0,0.1-0.1,0.1-0.1c0.1,0,0.1,0,0.2,0l0.1-0.1l-0.9-1l-0.1,0.1
			C20.5,16,20.5,16.2,20.4,16.3L20.4,16.3z M20,12.3l2.2,3.2c0,0,0,0.1,0,0.2c0,0,0,0.1-0.1,0.1l0.1,0.1l1.3-0.9l-0.1-0.1
			c0,0-0.1,0-0.2,0.1c0,0-0.1,0-0.1-0.1l-0.8-1.1l0.8-0.5l1.2,0.6c0.1,0,0.2,0.1,0.2,0.2c0,0,0,0.1,0,0.1c0,0,0,0,0,0
			c0,0-0.1,0.1-0.1,0.1l0.1,0.1l1.6-1L26,13.2c-0.1,0-0.1,0.1-0.2,0.1c-0.1,0-0.1,0-0.2,0L24,12.6c0.2-0.2,0.3-0.5,0.3-0.8
			c0-0.3-0.1-0.6-0.2-0.9c-0.2-0.3-0.5-0.6-0.9-0.6c-0.4,0-0.8,0.1-1.1,0.3l-2.4,1.7l0.1,0.1h0.1C19.8,12.3,20,12.2,20,12.3z
			 M21.9,13l-0.6-0.9l1-0.7c0.2-0.1,0.4-0.2,0.6-0.2c0.1,0,0.3,0.1,0.3,0.2c0.1,0.1,0.1,0.3,0.1,0.4c-0.1,0.2-0.2,0.3-0.3,0.4
			L21.9,13z M26.5,11.3l0.2,1.4h0.1c0,0,0-0.1,0-0.1c0,0,0-0.1,0.1-0.1h0.2l0.5-0.1c0.2,0,0.4-0.1,0.6-0.2c0.2-0.1,0.4-0.1,0.6-0.2
			c0.3-0.1,0.5-0.3,0.8-0.5c0.2-0.1,0.3-0.3,0.5-0.6c0.1-0.2,0.1-0.4,0.1-0.6c0-0.2,0-0.4-0.1-0.6c-0.1-0.2-0.3-0.4-0.5-0.6
			c-0.2-0.1-0.4-0.2-0.6-0.2c-0.3,0-0.5,0.1-0.8,0.1l-0.7,0.2c-0.2,0.1-0.4,0.1-0.6,0.1c-0.1,0-0.2,0-0.3-0.1c0-0.1,0-0.2,0-0.3
			c0.1-0.1,0.1-0.2,0.2-0.2c0.1-0.1,0.2-0.1,0.3-0.2l0.2-0.1c0.1-0.1,0.3-0.1,0.4-0.2c0.1,0,0.3-0.1,0.4-0.1c0.1,0,0.2,0,0.3,0
			c0.1,0,0.1,0,0.2,0v0.1c0,0,0,0,0,0.1H29V7h-0.1v0.1c0,0,0,0.1-0.1,0.1l-0.2,0.1L28,7.4l-0.5,0.2c-0.2,0.1-0.4,0.1-0.6,0.2
			c-0.3,0.1-0.6,0.3-0.8,0.5c-0.2,0.2-0.3,0.4-0.4,0.6c-0.1,0.2-0.1,0.4-0.1,0.6c0,0.2,0,0.3,0.1,0.5c0.1,0.2,0.3,0.4,0.5,0.5
			c0.2,0.1,0.4,0.1,0.7,0.1c0.3,0,0.5-0.1,0.7-0.1l0.7-0.2c0.2-0.1,0.4-0.1,0.6-0.1c0.1,0,0.3,0,0.3,0.2c0,0.1,0,0.2,0,0.3
			c0,0.1-0.1,0.2-0.2,0.2c-0.1,0.1-0.1,0.1-0.2,0.2l-0.2,0.1c-0.2,0.1-0.4,0.2-0.6,0.2c-0.2,0.1-0.4,0.1-0.6,0.1c-0.2,0-0.3,0-0.5,0
			c-0.1,0-0.2,0-0.2-0.1v-0.1l0,0L26.5,11.3z M37.5,4.6l-3.8,0.8c0,0-0.1,0-0.1,0c0,0-0.1-0.1-0.1-0.2h-0.1l0.3,1.5h0.1
			c0-0.1,0-0.2,0-0.2c0,0,0.1-0.1,0.1-0.1l1.3-0.3l0.6,3.1c0,0.1,0,0.1,0,0.1c0,0-0.1,0.1-0.1,0.1v0.1l1.6-0.3V9.1h-0.2
			c-0.1,0-0.1-0.1-0.1-0.1l-0.6-3.1l1.3-0.3c0,0,0.1,0,0.1,0c0,0,0.1,0.1,0.1,0.2h0.1l-0.3-1.5h-0.1c0,0.1,0,0.1,0,0.2
			C37.6,4.6,37.6,4.6,37.5,4.6L37.5,4.6z M42.2,8.4l-0.1-1.4l1.4-2.6c0,0,0.1-0.1,0.1-0.1h0.1V4.2l-1.8,0v0.1h0.1c0,0,0.1,0,0.1,0.1
			c0,0.1-0.1,0.2-0.1,0.3c-0.1,0.1-0.6,1.1-0.6,1.2l-0.9-1.1c0-0.1-0.1-0.1-0.1-0.2c0,0,0-0.1,0.1-0.1c0,0,0,0,0,0h0.1V4.3l-2,0.2
			v0.1h0.1c0,0,0.1,0,0.1,0.1l1.9,2.5L41,8.5c0,0.1,0,0.1-0.1,0.1h-0.1v0.1l1.6-0.1V8.6h-0.1C42.3,8.6,42.2,8.5,42.2,8.4L42.2,8.4z
			 M50.6,4.9c-0.3,0-0.6,0-0.9,0c-0.3,0-0.6,0.1-0.9,0.3c-0.3,0.1-0.5,0.3-0.7,0.6c-0.2,0.3-0.4,0.6-0.4,1c-0.1,0.4-0.1,0.7,0,1.1
			c0.1,0.3,0.2,0.6,0.4,0.8c0.2,0.2,0.4,0.4,0.7,0.5c0.3,0.1,0.6,0.2,0.8,0.3c0.3,0,0.6,0,0.9,0c0.3,0,0.6-0.1,0.9-0.2
			C51.8,9,52,8.8,52.2,8.6c0.2-0.3,0.4-0.6,0.4-1c0.1-0.4,0.1-0.7,0-1.1c-0.1-0.3-0.2-0.6-0.4-0.8c-0.2-0.2-0.4-0.4-0.7-0.6
			C51.2,5,51,4.9,50.6,4.9L50.6,4.9z M50.4,5.9c0.3,0,0.6,0.2,0.8,0.5c0.1,0.1,0.2,0.3,0.2,0.4c0,0.2,0,0.3,0,0.5
			c0,0.2-0.1,0.3-0.2,0.5c-0.1,0.1-0.2,0.2-0.3,0.3c-0.3,0.2-0.6,0.2-1,0.2c-0.2,0-0.3-0.1-0.5-0.2c-0.1-0.1-0.3-0.2-0.4-0.3
			C49.1,7.7,49,7.6,49,7.4c0-0.2,0-0.3,0-0.5c0-0.2,0.1-0.3,0.2-0.5c0.1-0.1,0.2-0.2,0.3-0.3C49.7,6,49.8,5.9,50,5.9
			C50.2,5.9,50.3,5.9,50.4,5.9L50.4,5.9z M54.4,6.1l-1.3,3.7c0,0.1-0.1,0.1-0.1,0.1c-0.1,0-0.1,0-0.2,0v0.1l1.7,0.5v-0.1
			c-0.1,0-0.1-0.1-0.2-0.1c0,0,0-0.1,0-0.2l0.5-1.3l1.6,0.6c0,0,0.1,0,0.1,0.1c0,0.1,0,0.1,0,0.2h0.1L57,8.4h-0.1
			c0,0.1-0.1,0.1-0.1,0.2c0,0-0.1,0-0.1,0L55.1,8l0.3-0.9l2.4,0.8c0,0,0.1,0,0.1,0.1c0,0.1,0,0.1,0,0.2H58L58.4,7h-0.1
			c0,0.1-0.1,0.1-0.1,0.2c0,0-0.1,0-0.1,0l-3.8-1.4v0.1L54.5,6C54.5,6,54.5,6.1,54.4,6.1L54.4,6.1z M61.9,12l1.8,1l-0.8,1.3
			c0,0.1-0.1,0.1-0.1,0.1c-0.1,0-0.1,0-0.2-0.1l-0.1,0.1l1.5,1l0.1-0.1c-0.1,0-0.1-0.1-0.1-0.1c0,0,0-0.1,0-0.2l2.1-3.3
			c0-0.1,0.1-0.1,0.1-0.1l0.2,0.1l0.1-0.1l-1.4-1l-0.1,0.1c0.1,0,0.1,0.1,0.1,0.1c0,0,0,0.1,0,0.2l-0.7,1.1L62.5,11l0.7-1.1
			c0-0.1,0.1-0.1,0.1-0.1c0.1,0,0.1,0,0.2,0.1l0.1-0.1L62,8.9V9c0.1,0,0.1,0.1,0.1,0.1c0,0,0,0.1,0,0.2L60,12.7
			c0,0.1-0.1,0.1-0.1,0.1l-0.2-0.1l-0.1,0.1l1.5,0.9l0.1-0.1c0,0-0.1-0.1-0.1-0.1c0,0,0-0.1,0-0.2L61.9,12z M67.5,18.6l1.1,1.1
			l0.1-0.1c0,0-0.1-0.1-0.1-0.1c0,0,0-0.1,0-0.1c0.1-0.2,1.3-3.9,1.3-4s0.1-0.2,0.1-0.3s0.1,0,0.2,0l0.1-0.1l-1.4-1.3l-0.1,0.1
			c0.1,0.1,0.1,0.1,0,0.2c-0.1,0.1-0.2,0.2-0.4,0.2L64.8,16c0,0-0.1,0-0.1,0L64.6,16l-0.1,0.1l1.1,0.9l0.1-0.1v-0.1c0,0,0-0.1,0-0.1
			c0,0,0.1-0.1,0.1-0.1l0.6-0.3l1.6,1.4l-0.2,0.6c0,0,0,0.1-0.1,0.1c0,0-0.1,0-0.1,0h-0.1L67.5,18.6z M68.2,17l-1.2-1l1.8-0.8
			L68.2,17z M74.8,28.9l0.6,1.5l0.1,0c0,0,0-0.1,0-0.1c0,0,0-0.1,0-0.1c0.1-0.1,2.6-3.2,2.7-3.3c0.1-0.1,0.1-0.1,0.2-0.2
			c0.1,0,0.1,0,0.2,0.1l0.1,0l-0.9-1.7l-0.1,0.1c0,0.1,0,0.1,0,0.2c-0.1,0-0.3,0.1-0.4,0.1l-4,0.4c0,0-0.1,0-0.1,0
			c0,0-0.1-0.1-0.1-0.1l-0.1,0l0.7,1.2l0.1-0.1c0,0,0,0,0-0.1c0,0,0-0.1,0.1-0.1H74l0.6-0.1l1,1.9l-0.4,0.5c0,0-0.1,0.1-0.1,0.1
			c0,0-0.1,0-0.1,0v-0.1L74.8,28.9z M76.1,27.7l-0.7-1.4l1.9-0.1L76.1,27.7z M73.3,18.2L72.3,17l-0.1,0.1c0,0,0,0.1,0,0.1
			c0,0,0,0.1-0.1,0.1c0,0-2.4,3.2-2.4,3.3c-0.1,0-0.2,0-0.3-0.1l-0.1,0.1l1.3,1.5l0.1-0.1c0-0.1-0.1-0.1-0.1-0.2c0,0,0-0.1,0-0.1
			l0.2-0.1l2-0.7l0.3-0.1l0,0L73,21l-1.2,1.7c0,0.1-0.1,0.1-0.2,0.2c-0.1,0-0.2,0-0.3-0.1l-0.1,0.1l1.1,1.6l0.1-0.1
			c-0.1-0.1,0-0.3,0-0.3l3.6-1.4l0.2,0c0.1,0,0.1,0,0.2,0.1l0.1-0.1l-0.8-1.3l-0.1,0.1c0,0,0.1,0.1,0.1,0.2c0,0.1,0,0.1-0.1,0.1
			c0,0-2.4,1-2.4,1l0,0l1.4-2.1c0-0.1,0.1-0.1,0.1-0.2c0,0,0.1,0,0.2,0c0.1,0,0.1,0.1,0.1,0.1l0.1-0.1L74,19l-0.1,0.1
			c0,0,0.1,0.1,0.1,0.1c0,0.1,0,0.1-0.1,0.2c-0.1,0-0.2,0.1-0.2,0.1c-0.1,0-2.3,0.8-2.3,0.8l0,0c0-0.1,1.6-2.1,1.6-2.1
			c0,0,0.1,0,0.2,0C73.2,18.2,73.2,18.2,73.3,18.2L73.3,18.2z M80.6,31.2l-0.6-1.7h-0.1c0,0.1,0,0.1,0,0.2c0,0.1,0,0.1-0.1,0.1
			l-3.7,1.3c0,0-0.1,0-0.2,0c0-0.1-0.1-0.1-0.1-0.2h-0.1l0.6,1.7h0.1c0-0.1,0-0.1,0-0.2c0-0.1,0.1-0.1,0.1-0.1l3.7-1.3
			c0,0,0.1,0,0.2,0c0,0.1,0.1,0.1,0.1,0.2L80.6,31.2z M32.1,5.8l-1.8,0.6v0.1c0.1,0,0.1,0,0.2,0c0,0,0.1,0,0.1,0.1l1.2,3.7
			c0,0,0,0.1,0,0.2c-0.1,0-0.1,0.1-0.2,0.1v0.1l1.7-0.6v-0.1c-0.1,0-0.1,0-0.2,0c-0.1,0-0.1,0-0.1-0.1l-1.2-3.7c0,0,0-0.1,0-0.2
			C32,6,32.1,6,32.1,6L32.1,5.8z M10.4,22.2l-1,1.6l0.1,0.1c0-0.1,0.1-0.1,0.1-0.2c0,0,0.1,0,0.2,0l3.3,2c0.1,0,0.1,0.1,0.1,0.1
			c0,0.1,0,0.1-0.1,0.2l0.1,0.1l1-1.6l-0.1-0.1c0,0.1-0.1,0.1-0.1,0.2c0,0-0.1,0-0.2,0l-3.3-2c-0.1,0-0.1-0.1-0.1-0.1
			c0-0.1,0-0.1,0.1-0.2L10.4,22.2z M81.9,36.5l-0.4-1.8h-0.1c0,0.1,0,0.1,0,0.2c0,0.1-0.1,0.1-0.1,0.1l-3.8,0.8c0,0-0.1,0-0.2,0
			c0-0.1-0.1-0.1-0.1-0.2h-0.1l0.4,1.8h0.1c0-0.1,0-0.1,0-0.2c0-0.1,0.1-0.1,0.1-0.1l3.8-0.8c0,0,0.1,0,0.2,0c0,0.1,0.1,0.1,0.1,0.2
			L81.9,36.5z M81.8,33.5l0.3-0.1c-0.1-0.2-0.2-0.3-0.4-0.4c-0.1-0.1-0.3-0.3-0.5-0.3c-0.2-0.1-0.4-0.2-0.6-0.2c-0.2,0-0.4,0-0.6,0
			c-0.2,0.1-0.4,0.2-0.6,0.3c-0.1,0.2-0.2,0.4-0.1,0.6c0,0.2,0.2,0.3,0.3,0.4c0.4,0.2,0.8,0,1-0.3c0.1-0.2,0.1-0.4,0-0.6
			c0.2,0,0.4,0,0.6,0.1C81.5,33.2,81.7,33.4,81.8,33.5z M51.8,76.9l1.2-0.3 M51.7,76.6l0.2,0.5l1.1-0.4l-0.1-0.5L51.7,76.6z
			 M71.4,70l0.9-0.9L72.2,69h-0.1H72l-2.1-0.6c0-0.1-0.1-0.8-0.1-1s0-0.3,0-0.5c0-0.1,0-0.2,0.1-0.3l-0.1-0.1L69,67.5l0.1,0.1h0.1
			c0,0,0.1,0,0.1,0c0,0,0,0.1,0,0.1c0,0.1,0,0.2,0,0.3s0.1,1.4,0.1,1.5l-1-1c0,0,0-0.1,0-0.1c0,0,0-0.1,0.1-0.1l-0.1-0.1L67.5,69
			l0.1,0.1c0,0,0.1-0.1,0.1-0.1c0,0,0.1,0,0.1,0l2.2,2.1c0,0,0,0.1,0,0.1c0,0,0,0.1,0,0.1l0.1,0.1l0.8-0.8l-0.1-0.1
			c0,0-0.1,0.1-0.1,0.1c0,0-0.1,0-0.1,0L70,70.2l-0.1-0.9l1.3,0.4h0.1c0,0,0,0.1,0,0.1l-0.1,0.1L71.4,70z M54.2,80.5l1-0.3v-0.1
			h-0.1c0,0,0,0-0.1,0l-1.8-2.5l-0.1-0.2c0,0,0-0.1,0.1-0.1v-0.1L52,77.6v0.1c0,0,0.1,0,0.1,0.1c0,0.1,0,0.2,0,0.3
			c0,0.2-0.2,2.5-0.2,2.9c0,0,0,0,0,0.1h-0.1v0.1l0.9-0.2v-0.1l0,0c0,0,0,0,0-0.1c0,0,0-0.1,0-0.1c0,0,0-0.4,0-0.4l1.3-0.4l0.3,0.4
			v0.1c0,0,0,0.1,0,0.1l0,0L54.2,80.5z M53.6,79.4l-1,0.3l0.1-1.5L53.6,79.4z M63.8,76.3l0.9-0.6v-0.1c0,0,0,0-0.1,0
			c0,0-0.1,0-0.1,0c-0.1-0.1-2.3-1.8-2.4-1.9c-0.1,0-0.1-0.1-0.2-0.2c0,0,0-0.1,0-0.1v-0.1L60.8,74v0.1c0,0,0.1,0,0.1,0c0,0,0,0,0,0
			c0,0.1,0.1,0.2,0.1,0.3c0,0.2,0.5,2.5,0.6,2.9c0,0,0,0.1,0,0.1c0,0,0,0,0,0.1v0.1l0.8-0.4l0,0l0,0c0,0,0,0-0.1,0c0,0,0-0.1,0-0.1
			c0,0-0.1-0.4-0.1-0.4l1.3-0.8l0.3,0.3l0.1,0.1c0,0,0,0.1,0,0.1l0,0L63.8,76.3z M62.9,75.3L62,75.9l-0.3-1.4L62.9,75.3z M74.2,66.7
			l0.6-0.8l-0.1-0.1h-0.1c0,0,0,0-0.1,0L71.7,65l-0.2-0.1c0,0,0-0.1,0-0.1l-0.1-0.1l-0.8,1l0.1,0.1c0,0,0.1,0,0.1,0c0,0,0,0,0,0
			l0.2,0.3c0.1,0.2,1.3,2.1,1.6,2.5c0,0,0,0.1,0,0.1c0,0,0,0,0,0.1l0.1,0.1l0.6-0.7L73.1,68l0,0c0,0,0,0-0.1,0c0,0,0-0.1-0.1-0.1
			l-0.2-0.4l0.9-1.2l0.4,0.1h0.1c0,0,0,0,0,0.1l0,0L74.2,66.7z M73,66.2L72.3,67l-0.8-1.3L73,66.2z M50.6,77.9v-0.2
			c-0.1,0.1-0.2,0.2-0.3,0.2c-0.1,0.1-0.2,0.2-0.3,0.3c-0.1,0.1-0.1,0.3-0.1,0.4c0,0.2,0,0.3,0,0.5c0,0.2,0.1,0.3,0.2,0.5
			c0.1,0.1,0.3,0.2,0.4,0.1c0.1,0,0.2-0.1,0.3-0.2c0.1-0.1,0.1-0.3,0.1-0.4c0-0.2-0.1-0.3-0.2-0.4c-0.1-0.1-0.3-0.1-0.4-0.1
			c0-0.2,0-0.3,0.1-0.4C50.4,78.1,50.5,78,50.6,77.9z M55.8,76.4l-1.2,0.4v0.1h0.2c0,0,0.1,0,0.1,0.1l1,2.8c0,0.1,0,0.1,0,0.1
			c0,0-0.1,0.1-0.1,0.1v0.1l1.3-0.5v-0.1c0,0-0.1,0-0.2,0c0,0-0.1,0-0.1-0.1l-1-2.8c0-0.1,0-0.1,0-0.1
			C55.8,76.5,55.8,76.5,55.8,76.4L55.8,76.4z M65.5,70.8l-1,0.8l0.1,0.1l0.1-0.1c0,0,0.1,0,0.1,0.1l1.9,2.3c0,0,0,0.1,0,0.1
			c0,0-0.1,0.1-0.1,0.1l0.1,0.1l1-0.8l-0.1-0.1l-0.1,0.1c0,0-0.1,0-0.1-0.1l-1.8-2.3c0,0-0.1-0.1,0-0.1C65.5,71,65.5,70.9,65.5,70.8
			L65.5,70.8z M60.7,77.7L59.5,75c0-0.1,0-0.1,0-0.1c0,0,0.1-0.1,0.1-0.1v-0.1l-1,0.5v0.1h0.1c0,0,0.1,0,0.1,0.1l0.7,1.4l-1.5-0.8
			c-0.1-0.1-0.1-0.1-0.2-0.1c0,0,0-0.1,0-0.1l0.1-0.1v-0.1l-1.4,0.6v0.1c0,0,0.1,0,0.1,0c0,0,0.1,0,0.1,0.1l1.2,2.7c0,0,0,0.1,0,0.1
			c0,0-0.1,0.1-0.1,0.1v0.1l1-0.4v-0.1h-0.1c0,0-0.1,0-0.1-0.1l-0.9-1.9l0,0c0.3,0.2,1.3,0.7,1.5,0.8l0.5,0.3c0.1,0,0.2,0.1,0.2,0.2
			c0,0,0,0.1,0,0.1c0,0,0,0,0,0l-0.1,0.1v0.1l1-0.5v-0.1L60.7,77.7C60.8,77.8,60.8,77.8,60.7,77.7L60.7,77.7z M80.3,53.7l-2.9-0.9
			c-0.1,0-0.1,0-0.1-0.1c0,0,0-0.1,0-0.1h-0.1L77,53.6h0.1c0,0,0-0.1,0.1-0.1c0,0,0.1,0,0.1,0l1.5,0.5l-1.6,0.6h-0.2
			c0,0-0.1,0-0.1-0.1c0,0,0-0.1,0-0.1h-0.1l-0.5,1.4h0.1c0,0,0-0.1,0.1-0.1c0,0,0.1,0,0.1,0l2.9,0.9c0.1,0,0.1,0,0.1,0.1
			c0,0,0,0.1,0,0.1h0.1l0.4-1h-0.1c0,0,0,0.1-0.1,0.1c0,0-0.1,0-0.1,0l-2-0.6l0,0c0.3-0.1,1.4-0.5,1.6-0.5l0.6-0.2
			c0.1,0,0.2,0,0.3,0c0,0,0.1,0,0.1,0.1c0,0,0,0.1,0,0.1h0.1l0.3-1.1h-0.1c0,0,0,0.1-0.1,0.1C80.5,53.7,80.4,53.8,80.3,53.7
			L80.3,53.7z M73.5,62l2.6,1.5c0.1,0,0.1,0.1,0.1,0.1c0,0,0,0,0,0.1h0.1l0.6-0.9l-0.1,0c0,0,0,0.1-0.1,0.1c0,0-0.1,0-0.1,0
			l-0.8-0.5l0.4-0.6c0.1-0.1,0.1-0.3,0.2-0.4c0-0.1,0-0.3,0-0.4c0-0.1-0.1-0.3-0.2-0.4c-0.1-0.2-0.2-0.3-0.4-0.4
			c-0.2-0.1-0.3-0.2-0.5-0.2c-0.1,0-0.3,0-0.4,0c-0.1,0.1-0.3,0.1-0.3,0.2c-0.1,0.1-0.2,0.2-0.3,0.4l-0.8,1.4h0.1h0.1
			C73.5,61.8,73.5,61.9,73.5,62C73.5,62,73.5,62,73.5,62z M75.1,62l-0.8-0.5l0.3-0.6c0.1-0.1,0.2-0.2,0.3-0.2c0.1,0,0.3,0,0.4,0.1
			c0.1,0.1,0.2,0.2,0.2,0.3c0,0.1,0,0.3-0.1,0.4L75.1,62z M75.5,57.7c-0.1,0.2-0.1,0.4-0.1,0.6c0,0.2,0,0.4,0.1,0.6
			c0.1,0.2,0.2,0.4,0.3,0.6c0.2,0.2,0.4,0.4,0.7,0.5c0.3,0.1,0.5,0.2,0.8,0.2c0.2,0,0.4-0.1,0.7-0.2c0.2-0.1,0.4-0.2,0.5-0.4
			c0.1-0.2,0.2-0.3,0.3-0.5c0.1-0.2,0.1-0.4,0.2-0.6c0-0.2,0-0.4-0.1-0.6c-0.1-0.2-0.2-0.4-0.3-0.6c-0.2-0.2-0.4-0.4-0.7-0.5
			c-0.3-0.1-0.5-0.2-0.8-0.2c-0.2,0-0.5,0-0.7,0.1c-0.2,0.1-0.4,0.2-0.5,0.4C75.7,57.4,75.5,57.5,75.5,57.7L75.5,57.7z M76.2,58.1
			c0-0.1,0.1-0.2,0.2-0.3c0.1-0.1,0.2-0.1,0.3-0.2c0.1,0,0.2-0.1,0.3,0c0.1,0,0.3,0,0.4,0.1c0.1,0.1,0.2,0.1,0.3,0.2
			c0.1,0.1,0.2,0.2,0.2,0.3c0,0.1,0.1,0.2,0.1,0.3c0,0.1,0,0.2-0.1,0.3c-0.1,0.2-0.3,0.4-0.5,0.5c-0.1,0-0.2,0.1-0.3,0
			c-0.3,0-0.5-0.1-0.7-0.3c-0.1-0.1-0.2-0.2-0.2-0.3c0-0.1-0.1-0.2-0.1-0.3C76.2,58.3,76.2,58.1,76.2,58.1L76.2,58.1z M8.8,60.2l2-1
			l0,0L9.2,61l2.5-0.2l0,0l-2,1c0,0-0.1,0-0.1,0l-0.1-0.1H9.4l0.5,0.9H10c0,0,0-0.1,0-0.1c0,0,0-0.1,0.1-0.1l2.7-1.4
			c0.1,0,0.1,0,0.1,0l0.1,0.1H13l-0.7-1.2h-0.1c0,0,0,0.1,0,0.1c-0.1,0-0.1,0-0.2,0l-1.2,0.1c0,0,0.7-0.8,0.8-0.9
			c0.1-0.1,0.1-0.1,0.2-0.2l0.1,0.1h0.1l-0.6-1.2h-0.1c0,0,0,0.1,0,0.1c0,0,0,0.1-0.1,0.1l-2.6,1.5c0,0-0.1,0-0.1,0l-0.1-0.1H8.2
			l0.4,0.9h0.1C8.7,60.3,8.7,60.3,8.8,60.2C8.7,60.2,8.7,60.2,8.8,60.2z M15.1,64.7l-1.4,1.1c-0.2,0.1-0.3,0.3-0.4,0.4
			c-0.1,0.1-0.2,0.3-0.2,0.5c0,0.2,0,0.4,0,0.6c0.1,0.2,0.2,0.4,0.4,0.6c0.1,0.2,0.3,0.4,0.5,0.5c0.2,0.1,0.4,0.1,0.5,0.1
			c0.2,0,0.4,0,0.5-0.1c0.2-0.1,0.4-0.2,0.5-0.3l1.4-1.1c0,0,0.1,0,0.1,0l0.1,0.1l0.1-0.1l-0.8-0.9l-0.1,0.1c0,0,0,0,0,0.1
			c0,0,0,0.1-0.1,0.1l-1.5,1.2c-0.1,0.1-0.3,0.2-0.4,0.1c-0.2,0-0.3-0.1-0.4-0.3c-0.1-0.1-0.2-0.3-0.2-0.4c0-0.2,0.1-0.3,0.2-0.4
			l1.5-1.2c0,0,0.1-0.1,0.1,0h0.1l0.1-0.1l-0.7-0.9l-0.1,0.1c0,0,0,0.1,0.1,0.1C15.1,64.7,15.1,64.7,15.1,64.7L15.1,64.7z M8.5,49.3
			l-1.7,0.4c-0.2,0-0.4,0.1-0.6,0.2C6,50,5.8,50.1,5.7,50.2c-0.1,0.1-0.2,0.3-0.2,0.5c0,0.2,0,0.5,0,0.7c0,0.2,0.1,0.5,0.3,0.7
			c0.1,0.2,0.2,0.3,0.4,0.4c0.2,0.1,0.3,0.1,0.5,0.1c0.2,0,0.4,0,0.6,0l1.7-0.4c0.1,0,0.1,0,0.1,0c0,0,0,0.1,0.1,0.1h0.1l-0.3-1.1H9
			c0,0,0,0,0,0.1c0,0,0,0-0.1,0.1L7,51.8c-0.2,0.1-0.3,0-0.4-0.1c-0.2-0.2-0.3-0.6-0.2-0.9c0.1-0.1,0.2-0.2,0.4-0.3l1.9-0.4
			c0.1,0,0.1,0,0.1,0v0.1h0.1l-0.2-1.1H8.5C8.5,49.2,8.5,49.2,8.5,49.3C8.5,49.2,8.5,49.3,8.5,49.3z M22.5,75.2l-1.5-1l0.5-0.6
			l1,0.7c0,0,0,0,0,0.1c0,0,0,0.1,0,0.2h0.1l0.6-0.8h-0.1c0,0.1-0.1,0.1-0.1,0.1c0,0-0.1,0-0.1,0l-1-0.7l0.4-0.5l1.5,1.1
			c0,0,0,0,0,0.1c0,0.1,0,0.1-0.1,0.2h0.1l0.6-0.9h-0.1c0,0.1-0.1,0.1-0.1,0.1c0,0-0.1,0-0.1,0l-2.3-1.7l0,0.1c0,0,0.1,0.1,0.1,0.1
			c0,0,0,0.1,0,0.1L20.1,74c0,0-0.1,0.1-0.1,0.1h-0.1l0,0.1l2.3,1.7c0,0,0.1,0,0.1,0.1c0,0,0,0.1,0,0.1l0,0l0.6-0.8h-0.1
			C22.7,75.2,22.6,75.2,22.5,75.2z M27.6,78L26,77.2l0.4-0.7l1.1,0.5c0,0,0.1,0,0.1,0.1c0,0,0,0.1,0,0.2h0.1l0.5-0.9h-0.1
			c0,0.1-0.1,0.1-0.1,0.1h-0.1l-1.1-0.5l0.3-0.6l1.6,0.8c0,0,0,0,0,0.1c0,0,0,0.1,0,0.2h0.1l0.5-0.9h-0.1c0,0.1-0.1,0.1-0.1,0.1
			c0,0-0.1,0-0.1,0l-2.5-1.3v0.1c0,0,0.1,0,0.1,0.1c0,0,0,0.1,0,0.1L25,77.2c0,0,0,0.1-0.1,0.1h-0.1v0.1l2.5,1.3l0.1,0.1
			c0,0,0,0.1,0,0.1h0l0.5-0.9h-0.1C27.8,78,27.7,78.1,27.6,78z M42.5,82.1h1.3V82h-0.1l0-0.1l-1-1.9c0.1-0.1,0.5-0.6,0.7-0.7
			l0.3-0.3c0.1-0.1,0.2-0.1,0.2-0.2v-0.1h-1.2v0.1h0.1c0,0,0.1,0.1,0,0.1c0,0,0,0.1-0.1,0.1l-0.2,0.2c-0.1,0.1-1,1-1,1.1v-1.5
			c0-0.1,0-0.1,0.1-0.1h0.1v-0.1l-1.2-0.1v0.1c0,0,0.1,0,0.1,0c0,0,0.1,0.1,0,0.1l-0.1,3c0,0,0,0.1,0,0.1c0,0-0.1,0-0.1,0V82
			l1.2,0.1V82c0,0-0.1,0-0.1,0c0,0-0.1-0.1-0.1-0.1v-0.6l0.6-0.7c0,0,0.6,1.2,0.6,1.2c0,0,0,0.1,0,0.1C42.6,82,42.5,82,42.5,82.1
			l-0.1,0L42.5,82.1z M18.3,72.9l1,0.8l0.1-0.1c0,0,0-0.1,0-0.1c0,0,0-0.1,0-0.1l0.5-2.1c0.1,0,0.8-0.1,1-0.1h0.5c0.1,0,0.2,0,0.3,0
			l0.1-0.1l-1-0.8l-0.1,0.1l0.1,0.1c0,0,0,0.1,0,0.1h-0.1h-0.3l-1.5,0.2l1-1.1c0,0,0.1-0.1,0.1,0l0.1,0.1l0.1-0.1l-0.9-0.8L19,69
			l0,0c0,0,0,0.1,0,0.1l-2,2.3c0,0-0.1,0.1-0.1,0.1c0,0-0.1,0-0.1-0.1l-0.1,0.1l0.9,0.8l0.1-0.1c0,0-0.1-0.1-0.1-0.1
			c0,0,0-0.1,0-0.1l0.4-0.5l0.9-0.1l-0.3,1.3c0,0,0,0.1,0,0.1c0,0-0.1,0-0.1,0l-0.1-0.1L18.3,72.9z M46.8,82l1-0.1v-0.1h-0.1
			c0,0,0,0-0.1-0.1c-0.1-0.1-1.2-2.7-1.3-2.8c0-0.1-0.1-0.1-0.1-0.2c0,0,0-0.1,0.1-0.1v-0.1l-1.3,0.1v0.1c0,0,0.1,0,0.1,0.1
			c0,0.1,0,0.2-0.1,0.3c0,0.2-0.7,2.4-0.8,2.8c0,0,0,0,0,0.1h-0.1v0.1h0.9V82h0c0,0,0,0,0-0.1c0,0,0-0.1,0-0.1c0,0,0.1-0.4,0.1-0.4
			l1.5-0.1c0,0,0.2,0.4,0.2,0.4c0,0,0,0.1,0,0.1c0,0,0,0.1,0,0.1h0L46.8,82z M46.4,80.8l-1,0.1l0.4-1.4L46.4,80.8z M11.6,65.5
			l0.6,0.8l0.1-0.1c0,0,0-0.1,0-0.1c0,0,0,0,0-0.1c0.1-0.1,1.7-2.4,1.8-2.5l0.1-0.2c0,0,0.1,0,0.1,0l0.1,0l-0.7-1.1h-0.1
			c0,0,0,0.1,0,0.1l-0.3,0.1l-2.8,0.7c0,0-0.1,0-0.1,0l-0.1,0l-0.1,0l0.5,0.8l0.1,0l0,0c0,0,0,0,0-0.1h0.1l0.4-0.1l0.8,1.2l-0.3,0.4
			c0,0,0,0.1-0.1,0.1s-0.1,0-0.1,0l0,0L11.6,65.5z M12.5,64.5l-0.6-0.9l1.4-0.3L12.5,64.5z M6.8,56.1l0.3,1h0.1c0,0,0-0.1,0-0.1
			c0,0,0,0,0-0.1L9.7,55l0.2-0.1c0,0,0.1,0,0.1,0h0.1l-0.4-1.2H9.6c0,0.1,0,0.1,0,0.1H9.2l-2.9-0.1c0,0,0,0-0.1,0c0,0,0,0,0-0.1H6.1
			l0.3,0.9h0.1l0,0c0,0,0,0,0.1,0H7l0.4,1.4l-0.4,0.3L7,56.1C7,56.1,6.9,56.1,6.8,56.1L6.8,56.1L6.8,56.1z M8,55.4l-0.3-1l1.5,0.1
			L8,55.4z M30.6,79.9l1,0.3v-0.1c0,0,0,0-0.1,0c0,0,0-0.1,0-0.1c0-0.1,0-2.9,0-3.1c0-0.1,0-0.1,0-0.2c0,0,0-0.1,0.1,0v-0.1
			l-1.2-0.5v0.1c0,0,0.1,0.1,0,0.1c-0.1,0.1-0.1,0.2-0.2,0.3L28.3,79c0,0,0,0-0.1,0h-0.1v0.1l0.9,0.4v-0.1l0,0c0,0,0,0,0-0.1l0-0.2
			l0.3-0.3l1.4,0.5v0.5c0,0,0,0.1,0,0.1c0,0,0,0.1,0,0l0,0L30.6,79.9z M30.7,78.7l-1-0.4l1-1.1V78.7z M36.3,77.9c-0.2,0-0.4,0-0.6,0
			c-0.2,0-0.4,0.1-0.6,0.2c-0.2,0.1-0.4,0.3-0.5,0.5c-0.3,0.5-0.4,1-0.3,1.6c0,0.2,0.1,0.4,0.3,0.6c0.1,0.2,0.3,0.3,0.5,0.4
			c0.4,0.2,0.8,0.3,1.2,0.2c0.2,0,0.4-0.1,0.6-0.2c0.2-0.1,0.4-0.3,0.5-0.5c0.3-0.5,0.4-1,0.3-1.6c0-0.2-0.1-0.4-0.3-0.6
			c-0.1-0.2-0.3-0.3-0.5-0.4C36.6,78,36.5,77.9,36.3,77.9L36.3,77.9z M36.1,78.7c0.1,0,0.2,0.1,0.3,0.1c0.1,0.1,0.2,0.1,0.2,0.2
			c0.1,0.1,0.1,0.2,0.1,0.3c0,0.1,0,0.3,0,0.4c0,0.1-0.1,0.3-0.1,0.4c-0.1,0.1-0.1,0.2-0.2,0.3c-0.1,0.1-0.2,0.1-0.3,0.1
			c-0.1,0-0.2,0-0.3,0c-0.1,0-0.2-0.1-0.3-0.1c-0.1-0.1-0.2-0.1-0.2-0.2c-0.1-0.1-0.1-0.2-0.1-0.3c0-0.3,0-0.5,0.2-0.8
			c0.1-0.1,0.1-0.2,0.2-0.2c0.1-0.1,0.2-0.1,0.3-0.1C35.9,78.7,36,78.7,36.1,78.7L36.1,78.7z M77.7,50.6c0,0.2,0,0.4,0,0.6
			c0,0.2,0.1,0.4,0.2,0.6c0.1,0.2,0.3,0.4,0.5,0.5c0.2,0.2,0.5,0.3,0.8,0.3c0.3,0.1,0.5,0.1,0.8,0c0.2,0,0.4-0.1,0.6-0.3
			c0.2-0.1,0.3-0.3,0.4-0.5c0.1-0.2,0.2-0.4,0.2-0.6c0-0.2,0-0.4,0-0.6c0-0.2-0.1-0.4-0.2-0.6c-0.1-0.2-0.3-0.4-0.5-0.5
			c-0.2-0.2-0.5-0.3-0.8-0.3c-0.3-0.1-0.5-0.1-0.8,0c-0.2,0-0.4,0.1-0.6,0.3c-0.2,0.1-0.3,0.3-0.4,0.5
			C77.8,50.3,77.8,50.4,77.7,50.6z M78.5,50.8c0-0.1,0.1-0.2,0.1-0.3c0.1-0.1,0.1-0.2,0.2-0.2c0.1-0.1,0.2-0.1,0.3-0.1
			c0.1,0,0.3,0,0.4,0c0.1,0,0.3,0.1,0.4,0.1c0.1,0.1,0.2,0.1,0.2,0.2c0.1,0.1,0.1,0.2,0.1,0.3c0,0.1,0,0.2,0,0.3
			c0,0.1-0.1,0.2-0.1,0.3c-0.1,0.1-0.1,0.2-0.2,0.2c-0.1,0.1-0.2,0.1-0.3,0.1c-0.1,0-0.3,0-0.4,0c-0.1,0-0.3-0.1-0.4-0.2
			c-0.1-0.1-0.2-0.1-0.2-0.2c-0.1-0.1-0.1-0.2-0.1-0.3C78.5,51,78.5,50.9,78.5,50.8z M32.1,46.8l1.5,0.6l-0.2-0.6L32,46.2L32.1,46.8
			z M36.6,51.3c-0.3-0.1-0.5-0.2-0.6-0.3l-0.2-1.1c-0.1-0.6-0.3-1.5-0.3-1.6L34.8,48c0,0.1,0.2,1.2,0.2,1.3l0.1,0.6
			c0,0.1,0.2,1.2,0.2,1.4c0.2,0.1,1.2,0.6,1.3,0.6L36.6,51.3z M40.4,53.4c0.1-0.2,0.4-1.6,0.5-1.8l0,0c0.1,0.2,0.5,1.1,0.8,1.7l0,0
			c0.2-0.4,0.8-1.5,0.9-1.7c0,0.1,0.5,1.6,0.6,2l0.6-0.3c-0.1-0.4-0.8-2.5-1-3.1l0,0c-0.1,0.3-0.8,1.6-0.9,1.9l-0.9-2l0,0
			c-0.1,0.4-0.8,2.8-0.9,3L40.4,53.4z M44.6,53.6c0.1-0.2,0.3-0.8,0.3-0.8l1.2-0.1c0,0.1,0.2,0.6,0.3,0.8L47,53
			c-0.2-0.4-1.1-2.3-1.5-3l0,0c-0.2,0.5-1.3,2.9-1.4,3.2L44.6,53.6z M45.1,52.2l0.4-1c0,0.1,0.3,0.8,0.4,1H45.1z M48.8,51.9
			c-0.3,0.1-0.7,0.3-0.8,0.3l0.2-1c0.1-0.6,0.2-1.5,0.3-1.6l-0.6,0.2c0,0.1-0.2,1.2-0.2,1.3l-0.1,0.6c0,0.1-0.2,1.1-0.2,1.4l1.3-0.5
			L48.8,51.9z M52.5,51c0.1-0.2,0.9-2,1-2.2l0,0c0,0.2,0.1,1,0.2,1.5l0,0c0.3-0.5,1.1-1.9,1.2-2.1c0,0.1,0,1.5,0,1.9l0.6-0.5
			c0-0.3,0-2.4-0.1-2.9l0,0c-0.2,0.3-1.2,2-1.3,2.4c0-0.2-0.2-1.4-0.2-1.8l0,0c-0.2,0.5-1.7,3.6-1.8,3.8L52.5,51z M56.2,49.5
			c0.2-0.2,0.5-0.9,0.6-1l1.1-0.5c0,0.1,0,0.7,0,0.8l0.7-0.7c0-0.3-0.2-2.1-0.3-2.8l0,0c-0.4,0.6-2.2,3.5-2.4,4L56.2,49.5z
			 M57.2,47.8l0.7-1.2c0,0.1,0,0.7,0,0.9L57.2,47.8z M49.5,52.2c0.1-0.2,0.4-0.9,0.5-1l1.1-0.5c0,0.1,0.2,0.6,0.2,0.8l0.6-0.6
			c-0.1-0.3-0.6-2-0.8-2.6l0,0c-0.3,0.6-1.7,3.3-1.9,3.7L49.5,52.2z M50.2,50.6c0.1-0.2,0.5-1,0.5-1.2c0,0.1,0.2,0.7,0.2,0.8
			L50.2,50.6z M32,49.8c-0.1-0.2-1.7-3.3-2-3.8l0,0c0,0.4-0.1,1.6-0.1,1.8c-0.2-0.3-1.2-2.1-1.5-2.4l0,0c0,0.5,0.1,2.7,0.1,3
			l0.6,0.5c0-0.3-0.1-1.8-0.1-1.9c0.1,0.2,1,1.6,1.3,2.1l0,0c0-0.5,0.1-1.3,0.1-1.5l0,0c0.1,0.2,1,2,1.1,2.3L32,49.8z M34.9,50.9
			c-0.2-0.3-1.7-2.9-2-3.4l0,0c-0.2,0.6-0.5,2.2-0.6,2.5l0.6,0.6c0-0.2,0.1-0.7,0.1-0.7l1.1,0.4l0.5,0.9L34.9,50.9z M33,49.3
			c0-0.2,0.1-0.7,0.1-0.8l0.6,1.1L33,49.3z M39.6,53c-0.2-0.4-1.5-3.2-1.8-3.8l0,0c-0.2,0.6-0.7,2.3-0.8,2.6l0.6,0.7
			c0-0.2,0.2-0.7,0.2-0.8l1.1,0.5c0,0.1,0.3,0.8,0.4,1L39.6,53z M37.8,51.2c0-0.2,0.2-0.7,0.2-0.8l0.5,1.2L37.8,51.2z M39.5,61.2
			h-6.7c-0.3-1.1-0.6-2.2-0.8-3.3l-0.8-0.3c0.3,1.3,0.6,2.5,0.9,3.7H23c-2.9-5.4-4.4-11.3-4.4-17.4h5.6l-0.3-0.7h-5.3
			c0-6.1,1.5-12.1,4.5-17.4h9c-0.4,1.4-0.8,2.9-1.1,4.5c0.1,0,0.3,0.1,0.4,0.1l0.3,0.1c0.3-1.7,0.7-3.2,1.1-4.7h4
			c0.1-0.3,0.4-0.7,0.4-0.7H33c1.9-6.1,4.6-10.4,7.8-12h-0.5l-1.1,0.1c-2.1,1.5-4,4.2-5.5,7.9c-0.5,1.3-1,2.6-1.4,4h-8.8
			c2.8-5,7.2-9,12.5-11.3h-0.2L34.7,14c-1,0.3-1.9,0.6-2.8,1c-3.8,2.5-6.9,5.9-9.1,9.9H19l-0.5,0.7h3.8C19.4,31,17.9,37,17.9,43
			h-5.1v0.7h5.1c0,6.1,1.5,12.1,4.3,17.5h-3.8l0.5,0.7h3.6c2.2,3.9,5.2,7.2,8.9,9.7c0,0,1.3,0.5,1.8,0.7c0,0,1.1,0.4,1.7,0.5
			l0.5,0.1c-5.1-2.3-9.3-6.2-12.1-11.1h8.8c0.4,1.4,0.9,2.7,1.4,4c1.5,3.6,3.4,6.3,5.4,7.8l1.1,0.1h0.4c-3.1-1.6-5.8-6-7.6-12h8.1
			L39.5,61.2z M73.9,43.8v-0.7h-5c0-6.1-1.5-12.1-4.4-17.4h3.7L67.7,25h-3.6c-2.2-3.9-5.3-7.3-9-9.8l-0.4-0.1
			c-0.2-0.1-1.1-0.4-1.1-0.4c-1-0.4-2.7-0.8-2.7-0.8c5.2,2.3,9.6,6.2,12.4,11.2h-8.8c-0.4-1.4-0.9-2.7-1.4-4
			c-1.5-3.7-3.4-6.4-5.5-7.9L47.1,13L46,12.9c3.2,1.6,5.9,6,7.8,12h-1.3c0.1,0.2,0.1,0.5,0.2,0.7H54c0.4,1.5,0.8,3,1.1,4.7
			c0,0,0.3-0.1,0.5-0.2h0.1c-0.3-1.5-0.7-3-1.1-4.5h9c2.9,5.3,4.4,11.3,4.5,17.4h-5.3l-0.3,0.7h5.6c0,6.1-1.5,12-4.4,17.4h-9
			c0.3-1.2,0.7-2.4,0.9-3.7l-0.8,0.3c-0.2,1.2-0.5,2.3-0.8,3.3h-6.7l-1.6,0.7h8.1c-1.8,6-4.5,10.3-7.6,12l1-0.1l0.6-0.1
			c2-1.6,3.8-4.2,5.3-7.8c0.5-1.3,1-2.6,1.4-4h8.8c-2.7,4.8-6.9,8.7-11.9,11c0,0,1.3-0.4,2.1-0.7c0,0,1.3-0.5,1.6-0.6l0.3-0.1
			c3.6-2.5,6.6-5.8,8.7-9.6h3.5c0.1-0.2,0.5-0.7,0.5-0.7h-3.6c2.8-5.4,4.3-11.3,4.3-17.4L73.9,43.8z M58.9,37.4l1.6-4.1
			c-2.1,0.4-6.4,2.4-13,9.1L58.9,37.4z M55.9,31.4c-0.8,0.2-3.9,1.8-8,8.9c2.1-2.1,4.3-4,6.8-5.7L55.9,31.4z M37.6,35
			c1.1,2.1,3.4,3.4,5.8,3.3c2.4,0.1,4.7-1.2,5.8-3.3H37.6z M49.8,33.2H36.9c-0.3,0-0.5,0.2-0.5,0.5s0.2,0.5,0.5,0.5h12.9
			c0.3,0,0.5-0.2,0.5-0.5S50.1,33.2,49.8,33.2z M39.4,42.3c-6.7-6.6-11-8.7-13-9.1l1.6,4.1L39.4,42.3z M32.2,34.6
			c2.4,1.7,4.7,3.6,6.8,5.7c-4.1-7.1-7.1-8.7-8-8.9L32.2,34.6z M46.1,44.1l0.5-5.6c-0.8,0.4-1.7,0.6-2.5,0.6l-0.5,9.3
			c0,0.1-0.1,0.1-0.1,0.1l0,0c-0.1,0-0.1,0-0.1-0.1c0,0,0,0,0,0l-0.5-9.3c-0.9-0.1-1.7-0.3-2.5-0.6l0.5,5.6l-17.9-7.4l7.1,19l11.4,5
			l0.3-4.4c0,0,0-0.1,0.1-0.1c0,0,0.1,0,0.1,0.1v0l0.4,4.8l0,0l0.4,4.6c0,0.4,0.4,0.7,0.8,0.8c0.4,0,0.8-0.3,0.8-0.7l0.4-4.6l0,0
			l0.4-4.8c0,0,0-0.1,0.1-0.1c0,0,0.1,0,0.1,0.1l0.3,4.4l11.4-5l7.2-19L46.1,44.1z M48.3,29c0.1-0.3,0.1-0.6,0.1-0.9
			c0-0.5-0.2-1.1-0.4-1.5c-0.2-0.4-0.3-0.8-0.4-1.2c-0.1-0.6-0.2-1.2-0.2-1.8c0-0.1,0-0.3,0-0.4l-0.9,0.5C44,25,40.4,27,40.4,32
			c0,0.1,0,0.2,0,0.4h5.3C46.8,31.5,47.7,30.3,48.3,29z M50.3,22.8c-0.4-1.3-0.3-2.7,0.1-3.9c-3.6,0.9-4.3,3-5.3,3.2
			c-0.8,0.2-0.6-1.9-0.6-1.9s-5.1,2.6-6.8,6.7c-1.5,3.5-0.1,5.5-0.1,5.5h1.9c-0.2-5.9,4-8.2,6.7-9.7c0.6-0.3,1.2-0.7,1.7-1l1-0.7
			l-0.2,1.2c-0.1,0.9-0.1,1.9,0.1,2.8c0.1,0.4,0.2,0.7,0.3,1.1c0.5,1,0.6,2.1,0.3,3.1c-0.4,1.2-1.2,2.3-2.1,3.2h1.3
			c0,0,1.4-0.6,2.5-3.1C52.2,26.2,51,24.9,50.3,22.8L50.3,22.8z M38.6,69.7L38.6,69.7C38.7,69.6,38.7,69.6,38.6,69.7L38.6,69.7
			l0.2-0.1l0.2-0.1V71c0,0,0,0,0,0h-0.1v0.1h1V71h-0.1c0,0,0,0,0-0.1v-2.2c0,0,0,0,0-0.1h0.1v-0.1h-0.9v0.1H39c0,0,0,0,0,0.1v0.2
			h-0.1h-0.1h-0.1h0l0,0c0,0,0,0,0-0.1h-0.1V69.7z M40.9,70.3L40.5,71h0.1c0,0,0.1-0.1,0.1-0.1h0.1L41,71h0.3c0.1,0,0.2,0,0.3,0
			c0.2,0,0.4,0,0.5-0.1c0.2-0.1,0.3-0.1,0.5-0.2c0.1-0.1,0.2-0.2,0.3-0.4c0-0.1,0.1-0.3,0.1-0.5c0-0.2,0-0.4-0.1-0.5
			c-0.1-0.1-0.1-0.3-0.3-0.4c-0.1-0.1-0.3-0.2-0.4-0.2c-0.2-0.1-0.4-0.1-0.5-0.1c-0.1,0-0.3,0-0.4,0c-0.1,0-0.2,0.1-0.4,0.2
			c-0.1,0.1-0.2,0.1-0.3,0.2c-0.1,0.1-0.1,0.3-0.1,0.4c0,0.1,0,0.2,0.1,0.3c0.1,0.1,0.1,0.2,0.2,0.3c0.1,0.1,0.2,0.1,0.3,0.2
			c0.1,0,0.2,0.1,0.3,0.1c0.1,0,0.3,0,0.4-0.1c0.2-0.1,0.3-0.1,0.5-0.2c0,0.1,0,0.2-0.1,0.3c0,0.1-0.1,0.2-0.2,0.2
			c-0.1,0.1-0.2,0.1-0.2,0.1c-0.1,0-0.2,0-0.3,0h-0.2h-0.2c-0.1,0-0.1,0-0.1-0.1C41,70.5,40.9,70.5,40.9,70.3L40.9,70.3L40.9,70.3z
			 M41.7,69h0.2c0.1,0,0.1,0,0.2,0.1c0.1,0,0.1,0.1,0.1,0.1c0,0,0.1,0.1,0.1,0.2c0,0.1,0,0.1-0.1,0.2c0,0-0.1,0.1-0.1,0.1l-0.2,0.1
			h-0.3l-0.2-0.1c-0.1,0-0.1-0.1-0.1-0.1c0,0-0.1-0.1,0-0.2c0-0.1,0-0.1,0-0.2c0,0,0.1-0.1,0.1-0.1c0.1,0,0.1-0.1,0.2-0.1H41.7z
			 M44.8,68.6c-0.2,0-0.3,0-0.5,0.1c-0.2,0.1-0.3,0.1-0.4,0.3c-0.1,0.1-0.2,0.2-0.3,0.4c-0.1,0.2-0.1,0.3-0.1,0.5
			c0,0.2,0,0.3,0.1,0.5c0.1,0.2,0.2,0.3,0.3,0.4c0.2,0.2,0.6,0.4,0.9,0.3c0.2,0,0.3,0,0.5-0.1c0.2-0.1,0.3-0.1,0.4-0.3
			c0.1-0.1,0.2-0.3,0.3-0.4c0.1-0.2,0.1-0.3,0.1-0.5c0-0.2,0-0.3-0.1-0.5c-0.1-0.1-0.2-0.3-0.3-0.4c-0.1-0.1-0.3-0.2-0.4-0.3
			C45.1,68.7,45,68.6,44.8,68.6L44.8,68.6z M44.8,69.2c0.2,0,0.3,0.1,0.5,0.2c0,0.1,0.1,0.1,0.1,0.2c0,0.1,0,0.2,0,0.3
			c0,0.1,0,0.2,0,0.3c0,0.1-0.1,0.2-0.1,0.2c0,0.1-0.1,0.1-0.2,0.2c-0.2,0.1-0.4,0.1-0.5,0c-0.1,0-0.1-0.1-0.2-0.2
			c0-0.1-0.1-0.1-0.1-0.2c0-0.1,0-0.2,0-0.3c0-0.1,0-0.2,0-0.3c0-0.1,0.1-0.2,0.1-0.2c0-0.1,0.1-0.1,0.2-0.2
			C44.6,69.2,44.7,69.2,44.8,69.2L44.8,69.2z M46.6,69.2h1.5l-1,1.8L47,71c0,0-0.1,0-0.1,0v0.1h1V71h-0.1c0,0,0,0,0-0.1
			c0,0,0-0.1,0-0.1l0.1-0.1l0.9-1.7v-0.6h-0.1c0,0,0,0.1,0,0.1h0h-2.1h-0.1c0,0,0-0.1,0-0.1h0v0.8L46.6,69.2
			C46.5,69.2,46.5,69.2,46.6,69.2L46.6,69.2z"/>
		<path d="M68.7,82.6v0.2h-0.9V85h-0.2v-2.2h-0.9v-0.2H68.7z M71.4,85l-0.2-1.7c0-0.2,0-0.4,0-0.6l0,0c-0.1,0.2-0.2,0.4-0.2,0.6
			L70.3,85h-0.2l-0.7-1.6c-0.1-0.2-0.1-0.4-0.2-0.6l0,0c0,0.2,0,0.4,0,0.6L69,85h-0.3l0.3-2.4h0.3l0.7,1.6c0.1,0.2,0.1,0.4,0.2,0.6
			l0,0c0-0.2,0.1-0.4,0.2-0.6l0.7-1.6h0.3l0.2,2.4H71.4z"/>
	</g>
</g>
</svg>
