<svg xmlns="http://www.w3.org/2000/svg" viewBox="0 0 86.69 86.84"><defs><style>.cls-1{fill:#fff;}</style></defs><title>Asset 1</title><g id="Layer_2" data-name="Layer 2"><g id="Layer_1-2" data-name="Layer 1"><path class="cls-1" d="M75.43,43.43A32.06,32.06,0,1,1,43.37,11.31,32.09,32.09,0,0,1,75.43,43.43M43.35,0A43.42,43.42,0,1,1,0,43.43,43.43,43.43,0,0,1,43.35,0Zm0,85.34A41.92,41.92,0,1,0,1.5,43.43,41.92,41.92,0,0,0,43.35,85.34Zm-38.19-49,2.12.52a2.5,2.5,0,0,0,.78.08,1.52,1.52,0,0,0,.7-.2,1.63,1.63,0,0,0,.57-.55,3.07,3.07,0,0,0,.39-1,3.19,3.19,0,0,0,.1-1A1.53,1.53,0,0,0,9,32.91a2.64,2.64,0,0,0-.73-.29l-2.12-.52A.14.14,0,0,1,6.07,32a1.11,1.11,0,0,1,0-.19l-.12,0L5.5,33.37l.11,0,.06-.09a.16.16,0,0,1,.15,0l2.42.59a.63.63,0,0,1,.47.38,1.48,1.48,0,0,1-.31,1.31.61.61,0,0,1-.6.12L5.39,35.1c-.07,0-.12,0-.13-.09a.23.23,0,0,1,0-.11l-.12,0L4.8,36.51l.12,0A.63.63,0,0,1,5,36.37.13.13,0,0,1,5.16,36.33Zm7.2-9.07L8.78,25.67c-.07,0-.1-.07-.1-.13a.72.72,0,0,1,0-.19l-.11,0-.73,1.47.11,0a.82.82,0,0,1,.11-.15.16.16,0,0,1,.17,0l1.86.83-.87.26L8.46,28l-.59.17a.79.79,0,0,1-.26.06.14.14,0,0,1-.12-.13.51.51,0,0,1,0-.14l-.11-.05-.82,2.06.11,0a.76.76,0,0,1,.11-.15.14.14,0,0,1,.16,0l3.57,1.59c.07,0,.1.07.1.12a.59.59,0,0,1,0,.17l.12.05.57-1.49-.11-.05a.74.74,0,0,1-.11.14.17.17,0,0,1-.16,0L8.46,29.29v0c.41-.1.82-.21,1.19-.33l1.05-.32.78-.22a.79.79,0,0,1,.39,0,.11.11,0,0,1,.06.13.76.76,0,0,1-.05.17l.12,0,.77-1.54-.12,0a.46.46,0,0,1-.11.15A.13.13,0,0,1,12.36,27.25Zm-1.22-6.13.1.08.05-.06a.16.16,0,0,1,.09,0,1.24,1.24,0,0,1,.35.09L15,22.41l.33.13a.15.15,0,0,1,.06.13.18.18,0,0,1-.05.13l.1.08,1.2-1.54-.09-.07a.19.19,0,0,1-.11.08.15.15,0,0,1-.14,0,1.87,1.87,0,0,1-.19-.27c-.1-.16-2-3.21-2-3.27a.18.18,0,0,1,0-.12.22.22,0,0,1,0-.12l-.1-.08-1,1.17.1.08a.44.44,0,0,1,.09-.1.09.09,0,0,1,.12,0,1.77,1.77,0,0,1,.19.29L14.77,21h0l-2.38-.87L12.19,20a.08.08,0,0,1,0-.12l.08-.12-.1-.07Zm9.23-4.87L18.43,18l-.68-.74L19,16.12a.18.18,0,0,1,.12,0s.1,0,.16.1l.09-.07-.91-1-.08.08a.24.24,0,0,1,.09.18.15.15,0,0,1-.05.11l-1.27,1.19-.56-.61,2-1.85a.19.19,0,0,1,.12,0,.25.25,0,0,1,.18.11l.08-.08-.93-1-.08.08c.06.07.1.13.08.17a.17.17,0,0,1-.06.11l-3.06,2.9.08.09.16-.1a.15.15,0,0,1,.16.05L18,19.36c0,.06.06.11,0,.16a.54.54,0,0,1-.1.16l.07.09,3-2.87a.5.5,0,0,1,.13-.09.25.25,0,0,1,.18.05l.07-.06-.89-1-.08.08C20.45,16,20.45,16.16,20.36,16.25ZM20,12.32l2.19,3.24a.14.14,0,0,1,0,.16.39.39,0,0,1-.07.1l.07.1L23.51,15l-.07-.1a.52.52,0,0,1-.16.06c-.05,0-.09,0-.14-.08l-.79-1.15.75-.5,1.16.65a.87.87,0,0,1,.22.16.09.09,0,0,1,0,.13.35.35,0,0,1-.11.1l.08.1,1.65-1L26,13.2a.33.33,0,0,1-.19.06.49.49,0,0,1-.2,0l-1.56-.71a2,2,0,0,0,.33-.83,1.25,1.25,0,0,0-.25-.88,1.32,1.32,0,0,0-.94-.65,1.64,1.64,0,0,0-1.12.33l-2.43,1.72.07.1.13,0S20,12.25,20,12.32Zm1.91.72-.61-.92,1-.71a.76.76,0,0,1,.56-.19.58.58,0,0,1,.34.24.52.52,0,0,1,.09.44.73.73,0,0,1-.31.38Zm4.59-1.77.22,1.4h.11a.78.78,0,0,1,0-.13.17.17,0,0,1,.08-.09l.22,0,.49-.09a5.9,5.9,0,0,0,.62-.16,5.54,5.54,0,0,0,.64-.24,3.25,3.25,0,0,0,.78-.48,1.61,1.61,0,0,0,.45-.55,1.22,1.22,0,0,0,.14-.59,1.27,1.27,0,0,0-.12-.56,1,1,0,0,0-.49-.55A1.48,1.48,0,0,0,29,9.06a3.25,3.25,0,0,0-.75.13l-.71.21a3.4,3.4,0,0,1-.56.12.29.29,0,0,1-.31-.14.31.31,0,0,1,0-.29,1.14,1.14,0,0,1,.23-.25,1.65,1.65,0,0,1,.29-.2l.24-.11a2.55,2.55,0,0,1,.44-.16,2.69,2.69,0,0,1,.41-.07,1.64,1.64,0,0,1,.31,0c.09,0,.14,0,.16,0l0,.06a.34.34,0,0,0,0,.05H29l0-1.4h-.11l0,.1a.16.16,0,0,1-.09.09l-.24.07L28,7.41l-.53.15a4.07,4.07,0,0,0-.59.23,2.7,2.7,0,0,0-.82.53,1.94,1.94,0,0,0-.42.61,1.42,1.42,0,0,0-.11.6,1.33,1.33,0,0,0,.11.51,1,1,0,0,0,.48.52,1.47,1.47,0,0,0,.67.1,3.14,3.14,0,0,0,.74-.14l.71-.22a2.45,2.45,0,0,1,.56-.12.31.31,0,0,1,.33.17.34.34,0,0,1,0,.26.64.64,0,0,1-.16.22.85.85,0,0,1-.23.17l-.2.1a3.71,3.71,0,0,1-.56.21,4.92,4.92,0,0,1-.59.14,2.51,2.51,0,0,1-.48,0c-.14,0-.22,0-.25-.1l0-.06v0Zm11-6.65-3.82.77a.19.19,0,0,1-.12,0s-.07-.08-.09-.17l-.11,0,.3,1.47.12,0c0-.09,0-.16,0-.19a.18.18,0,0,1,.1-.07l1.3-.26.62,3.08c0,.07,0,.13,0,.15a.42.42,0,0,1-.13.07l0,.12,1.64-.33,0-.12h-.15a.13.13,0,0,1-.1-.13L36.45,5.9l1.29-.26a.18.18,0,0,1,.12,0s.07.07.09.16l.11,0-.3-1.47-.11,0a.26.26,0,0,1,0,.2A.19.19,0,0,1,37.54,4.61Zm4.68,3.82-.07-1.36,1.44-2.63a.18.18,0,0,1,.11-.09l.13,0V4.2L42,4.22v.12h.12a.09.09,0,0,1,.08.09.83.83,0,0,1-.1.27c-.07.13-.61,1.1-.63,1.16l-.86-1.13a.55.55,0,0,1-.09-.22.08.08,0,0,1,.07-.09l.14,0V4.28l-2,.17v.12h.14a.17.17,0,0,1,.12.07l1.87,2.51L41,8.5a.16.16,0,0,1-.06.15l-.13,0v.12l1.63-.08V8.61l-.13,0S42.23,8.5,42.22,8.43Zm8.45-3.59a3.21,3.21,0,0,0-.88,0,2.33,2.33,0,0,0-.86.26,2.11,2.11,0,0,0-.71.6,2.18,2.18,0,0,0-.41,1,2.34,2.34,0,0,0,0,1.07,2.15,2.15,0,0,0,.44.81,2.39,2.39,0,0,0,.7.54,3.58,3.58,0,0,0,.85.29,3.25,3.25,0,0,0,.88,0,2.24,2.24,0,0,0,.86-.25,2.16,2.16,0,0,0,.71-.59,2.27,2.27,0,0,0,.41-1,2.34,2.34,0,0,0,0-1.07,2.1,2.1,0,0,0-.43-.81,2.54,2.54,0,0,0-.71-.56A3.2,3.2,0,0,0,50.67,4.84Zm-.21,1.07a1.28,1.28,0,0,1,.83.49,1.14,1.14,0,0,1,.2.43,1.46,1.46,0,0,1,0,.52,1.28,1.28,0,0,1-.19.48,1.12,1.12,0,0,1-.34.33,1.34,1.34,0,0,1-.95.16,1.37,1.37,0,0,1-.46-.17,1.3,1.3,0,0,1-.36-.32A1,1,0,0,1,49,7.4a1.28,1.28,0,0,1,0-.52,1.36,1.36,0,0,1,.19-.49,1.1,1.1,0,0,1,.34-.32A1.32,1.32,0,0,1,50,5.9,1.25,1.25,0,0,1,50.46,5.91Zm4,.22-1.28,3.7a.15.15,0,0,1-.12.11.64.64,0,0,1-.19,0l0,.11,1.68.52,0-.12a.72.72,0,0,1-.16-.1.13.13,0,0,1,0-.16l.46-1.31,1.61.56a.19.19,0,0,1,.09.08.28.28,0,0,1,0,.21l.11,0L57,8.45l-.11,0c0,.09-.07.14-.11.16a.19.19,0,0,1-.12,0L55.1,8l.31-.89,2.38.83a.19.19,0,0,1,.09.08.28.28,0,0,1,0,.21l.11,0L58.42,7l-.1,0c0,.09-.07.14-.12.16a.18.18,0,0,1-.12,0L54.27,5.75l0,.12.18.1A.13.13,0,0,1,54.44,6.13Zm7.48,5.82L63.66,13l-.82,1.31c0,.06-.09.09-.14.08a.6.6,0,0,1-.17-.06l-.07.1,1.45,1,.06-.1a.48.48,0,0,1-.13-.13.14.14,0,0,1,0-.16l2.08-3.31c0-.07.09-.09.14-.08l.18.06.06-.11-1.45-1-.07.11a.51.51,0,0,1,.13.13.12.12,0,0,1,0,.16l-.69,1.12-1.74-1.09.7-1.12c0-.06.08-.09.13-.08a.62.62,0,0,1,.18.06l.06-.1L62,8.94,62,9a.64.64,0,0,1,.14.13.14.14,0,0,1,0,.16L60,12.66c0,.07-.08.09-.14.08l-.18-.07-.07.11,1.52.87.07-.1a.6.6,0,0,1-.13-.13.15.15,0,0,1,0-.16Zm5.57,6.61,1.11,1.12.08-.09a.23.23,0,0,1-.07-.09.13.13,0,0,1,0-.11c.06-.18,1.29-3.89,1.35-4s.1-.25.11-.27.09,0,.16,0l.08-.09-1.42-1.29-.08.09c.05.06.06.11,0,.16a1.74,1.74,0,0,1-.38.22l-3.58,1.79a.13.13,0,0,1-.11,0l-.1-.05-.08.09,1.1.9.08-.09,0-.06s0-.06,0-.09a.32.32,0,0,1,.11-.07l.55-.27L68,17.74l-.21.61a.42.42,0,0,1-.06.12s-.06,0-.09,0l-.06,0ZM68.25,17,67.1,16l1.75-.83Zm6.55,11.88.64,1.45.11-.05a.29.29,0,0,1,0-.11.15.15,0,0,1,0-.1c.13-.14,2.59-3.17,2.7-3.3a1.5,1.5,0,0,1,.2-.21c.05,0,.1,0,.15.06l.1-.05-.87-1.71-.11.06c0,.08,0,.13,0,.16a2.56,2.56,0,0,1-.44.06l-4,.4a.14.14,0,0,1-.1,0,.26.26,0,0,1-.07-.09l-.11.05.7,1.24.11-.06a.4.4,0,0,1,0-.07s0-.06.05-.08l.13,0,.61-.06,1,1.92-.42.5a.51.51,0,0,1-.1.09s-.08,0-.1,0l0-.06Zm1.26-1.2-.71-1.37,1.94-.15ZM73.33,18.2,72.28,17l-.1.08a.21.21,0,0,1,0,.08.15.15,0,0,1-.05.11s-2.36,3.25-2.39,3.26a.25.25,0,0,1-.3-.08l-.1.07L70.61,22l.1-.07a1,1,0,0,1-.07-.17.08.08,0,0,1,0-.11l.22-.1,2-.69.27-.11h0L73,21l-1.19,1.74a.91.91,0,0,1-.15.19c-.05,0-.15,0-.27-.14l-.1.08,1.12,1.6.1-.07c-.09-.15,0-.27,0-.32l3.6-1.39.19-.05a.21.21,0,0,1,.18.08l.1-.08-.83-1.26-.1.08a.42.42,0,0,1,.08.16.16.16,0,0,1-.07.15s-2.39,1-2.45,1v0l1.41-2.09a1.21,1.21,0,0,1,.13-.18.14.14,0,0,1,.16,0,.42.42,0,0,1,.14.12l.1-.08L74,19l-.09.08a.44.44,0,0,1,.07.15.15.15,0,0,1-.06.16,1.19,1.19,0,0,1-.23.1c-.12,0-2.29.78-2.35.81h0c0-.06,1.59-2.12,1.62-2.14a.14.14,0,0,1,.16,0,.47.47,0,0,1,.13.11Zm7.22,13-.62-1.74-.11,0a1,1,0,0,1,0,.22.13.13,0,0,1-.1.12l-3.67,1.33a.13.13,0,0,1-.16,0,.69.69,0,0,1-.11-.2l-.12,0,.62,1.74.11,0a.83.83,0,0,1,0-.22.14.14,0,0,1,.11-.12L80.16,31a.13.13,0,0,1,.16,0,.6.6,0,0,1,.11.19ZM32.09,5.84l-1.75.57,0,.12a.83.83,0,0,1,.22,0c.05,0,.09,0,.12.11l1.22,3.72a.13.13,0,0,1,0,.16.69.69,0,0,1-.2.11l0,.12,1.75-.57,0-.12a.74.74,0,0,1-.21,0,.13.13,0,0,1-.13-.11L31.91,6.23a.14.14,0,0,1,0-.16A.66.66,0,0,1,32.13,6ZM10.42,22.2l-1,1.57.11.06a.6.6,0,0,1,.14-.16s.09,0,.16,0l3.34,2a.13.13,0,0,1,.08.14.83.83,0,0,1-.08.21l.11.06,1-1.57-.1-.06a.7.7,0,0,1-.15.17.13.13,0,0,1-.16,0l-3.34-2a.15.15,0,0,1-.08-.15,1,1,0,0,1,.08-.21ZM81.89,36.47l-.37-1.8-.12,0a.7.7,0,0,1,0,.22.14.14,0,0,1-.13.11l-3.82.81a.14.14,0,0,1-.16,0,1.51,1.51,0,0,1-.08-.21l-.12,0,.37,1.81.12,0a.74.74,0,0,1,0-.22.14.14,0,0,1,.13-.11l3.82-.8a.13.13,0,0,1,.16,0,.83.83,0,0,1,.08.2Zm-.1-2.94.3-.08a3.54,3.54,0,0,0-.37-.43,1.92,1.92,0,0,0-.46-.34,1.68,1.68,0,0,0-.55-.18,1.44,1.44,0,0,0-.62,0,1.23,1.23,0,0,0-.58.35.62.62,0,0,0-.12.61.74.74,0,0,0,.32.43.78.78,0,0,0,1-.32,1,1,0,0,0,0-.6.91.91,0,0,1,.59.13A1.74,1.74,0,0,1,81.79,33.53Zm-30,43.34,1.18-.35m-1.25.11.15.49L53,76.76l-.14-.49ZM71.4,70l.87-.95L72.2,69l-.08,0H72l-2.08-.58c0-.12-.07-.81-.09-1s0-.33,0-.47a.62.62,0,0,1,.05-.3l-.07-.07-.85.93.07.06.09,0a.12.12,0,0,1,.12,0,.41.41,0,0,1,0,.13c0,.07,0,.16,0,.28s.08,1.43.09,1.52l-1-1a.1.1,0,0,1,0-.11.67.67,0,0,1,.06-.11l-.07-.06-.84.83.07.07a.14.14,0,0,1,.09-.07.13.13,0,0,1,.12,0l2.15,2.09a.11.11,0,0,1,0,.12.12.12,0,0,1,0,.09l.06.07.85-.82-.07-.07a.37.37,0,0,1-.11.07s-.07,0-.12,0L70,70.16l-.11-.86,1.31.37.11,0a.11.11,0,0,1,0,.12l-.06.1ZM54.25,80.54l1-.3,0-.09h-.08a.07.07,0,0,1-.06,0l-1.81-2.5-.12-.18s0-.08.06-.1l0-.09-1.27.34,0,.09c.05,0,.09,0,.1.06a2.37,2.37,0,0,1,0,.35c0,.2-.2,2.52-.22,2.92a.1.1,0,0,1,0,.07l-.07,0,0,.09.91-.21,0-.09h0s0,0,0-.05a.84.84,0,0,1,0-.1s0-.41,0-.45L54,79.9l.26.37,0,.09s0,.06,0,.07l0,0Zm-.63-1.13-1,.28.13-1.47ZM63.8,76.26l.87-.56,0-.08a.11.11,0,0,1-.07,0,.12.12,0,0,1-.08,0c-.11-.09-2.3-1.83-2.39-1.92a.92.92,0,0,1-.17-.15s0-.08,0-.11l0-.08L60.76,74l0,.08a.07.07,0,0,1,.11,0,3.11,3.11,0,0,1,.09.34c0,.2.49,2.48.57,2.86a.1.1,0,0,1,0,.08.11.11,0,0,1,0,.05l0,.08.83-.45L62.32,77l0,0s0,0-.06,0a.61.61,0,0,1,0-.1s-.07-.4-.08-.45l1.26-.75.35.28.07.07s0,.05,0,.07l0,0Zm-.92-.92-.9.54-.27-1.45Zm11.31-8.62.62-.83-.08-.06-.06,0a.09.09,0,0,1-.07,0L71.67,65l-.21-.08a.08.08,0,0,1,0-.11l-.07-.06-.81,1,.08.06a.08.08,0,0,1,.12,0l.19.29c.11.17,1.35,2.14,1.56,2.47a.1.1,0,0,1,0,.08.12.12,0,0,1,0,.07l.07.06.61-.72L73.09,68l0,0s0,0-.07,0a.49.49,0,0,1-.06-.08l-.24-.38.91-1.15.42.14.09,0s0,0,0,.07l0,0ZM73,66.18l-.65.83-.76-1.26ZM50.58,77.91l0-.23a2.57,2.57,0,0,0-.29.25,1.48,1.48,0,0,0-.26.33,1.42,1.42,0,0,0-.13.4,1.2,1.2,0,0,0,0,.46.93.93,0,0,0,.21.47.38.38,0,0,0,.4.14.45.45,0,0,0,.3-.2.52.52,0,0,0,.07-.42.57.57,0,0,0-.24-.4.59.59,0,0,0-.4-.06.77.77,0,0,1,.11-.44A1.31,1.31,0,0,1,50.58,77.91Zm5.22-1.53-1.18.42,0,.09.15,0s.07,0,.09.08l1,2.83c0,.06,0,.1,0,.12a.42.42,0,0,1-.13.08l0,.09L57,79.64l0-.09a.4.4,0,0,1-.15,0s-.07,0-.09-.08l-1-2.83c0-.05,0-.1,0-.12a.44.44,0,0,1,.13-.08Zm9.65-5.55-1,.77.05.07.14-.07a.12.12,0,0,1,.11.06L66.62,74s0,.08,0,.12a.4.4,0,0,1-.1.12l.06.07,1-.77-.05-.08-.13.07a.12.12,0,0,1-.12-.05l-1.85-2.35s-.05-.09,0-.12a.43.43,0,0,1,.1-.12Zm-4.71,6.88L59.48,75c0-.05,0-.09,0-.12a.26.26,0,0,1,.1-.08l0-.09-1,.49,0,.09.13,0s.06,0,.09.08l.65,1.42-1.53-.84c-.1-.06-.14-.08-.16-.1a.1.1,0,0,1,0-.11l.07-.06,0-.09-1.38.59,0,.09a.25.25,0,0,1,.12,0s.07,0,.1.08L57.91,79a.12.12,0,0,1,0,.12.21.21,0,0,1-.09.07l0,.09,1-.42,0-.09-.12,0a.13.13,0,0,1-.09-.08l-.86-1.88v0c.26.16,1.28.71,1.5.82l.53.29a.58.58,0,0,1,.23.19.07.07,0,0,1,0,.1l-.11.06,0,.09,1-.52,0-.09-.13,0S60.75,77.76,60.73,77.71Zm19.6-24-2.86-.92c-.05,0-.08,0-.09-.08a.5.5,0,0,1,0-.13l-.09,0L77,53.64l.09,0a.37.37,0,0,1,.07-.11.12.12,0,0,1,.13,0l1.47.48-1.64.56-.18,0a.1.1,0,0,1-.09-.07.42.42,0,0,1,0-.1l-.09,0-.51,1.42.09,0a.57.57,0,0,1,.07-.11.12.12,0,0,1,.12,0l2.86.92c.06,0,.09.05.09.08a.47.47,0,0,1,0,.12l.09,0,.36-1-.09,0a.22.22,0,0,1-.06.1s-.06,0-.12,0l-2-.64v0c.3-.09,1.39-.47,1.63-.55l.56-.19a.69.69,0,0,1,.3,0,.09.09,0,0,1,.06.09.32.32,0,0,1,0,.11l.09,0,.34-1.13-.09,0a.43.43,0,0,1-.07.11S80.39,53.76,80.33,53.74ZM73.52,62l2.57,1.54c.06,0,.08.06.08.09a.25.25,0,0,1,0,.07l.08,0,.56-.93-.08-.05a.25.25,0,0,1-.08.07s-.07,0-.12,0l-.83-.5.36-.61a2.12,2.12,0,0,0,.19-.42.94.94,0,0,0,0-.41,1,1,0,0,0-.16-.41A1.39,1.39,0,0,0,75.7,60a1.31,1.31,0,0,0-.54-.2,1,1,0,0,0-.43,0,1,1,0,0,0-.35.24,2.58,2.58,0,0,0-.27.37l-.85,1.43.08,0,.05,0A.13.13,0,0,1,73.52,62Zm1.6,0-.8-.48.33-.56a.47.47,0,0,1,.27-.24.5.5,0,0,1,.36.1.47.47,0,0,1,.25.28.55.55,0,0,1-.1.38Zm.35-4.27a1.77,1.77,0,0,0-.14.59,1.51,1.51,0,0,0,.07.63,1.63,1.63,0,0,0,.35.58,1.87,1.87,0,0,0,.68.46,2,2,0,0,0,.81.19,1.6,1.6,0,0,0,.65-.15,1.52,1.52,0,0,0,.5-.37,1.94,1.94,0,0,0,.32-.51,2,2,0,0,0,.16-.58,1.48,1.48,0,0,0-.07-.62,1.62,1.62,0,0,0-.34-.58,2,2,0,0,0-.69-.46,1.93,1.93,0,0,0-.8-.18,1.57,1.57,0,0,0-.67.14,1.63,1.63,0,0,0-.51.37A1.74,1.74,0,0,0,75.46,57.66Zm.76.34a1,1,0,0,1,.2-.28.9.9,0,0,1,.29-.18,1,1,0,0,1,.35-.05,1.13,1.13,0,0,1,.39.1,1.11,1.11,0,0,1,.34.22.7.7,0,0,1,.2.29.77.77,0,0,1,.07.33,1,1,0,0,1-.07.34.84.84,0,0,1-.48.46.87.87,0,0,1-.34.05,1.27,1.27,0,0,1-.73-.31,1,1,0,0,1-.2-.29,1,1,0,0,1-.06-.34A.94.94,0,0,1,76.22,58ZM8.78,60.16l2-1h0L9.2,61l2.46-.21h0l-2,1a.11.11,0,0,1-.12,0l-.08-.09-.08,0,.51.92.08,0a.31.31,0,0,1,0-.09s0-.06.08-.09l2.67-1.37c.05,0,.09,0,.12,0l.07.06.08,0-.69-1.23-.09,0a.73.73,0,0,1,0,.08,0,0,0,0,1,0,.05.51.51,0,0,1-.19,0l-1.23.1s.7-.79.79-.89a1.28,1.28,0,0,1,.17-.17,0,0,0,0,1,.06,0l.05.07.08,0-.59-1.25-.08,0a.25.25,0,0,1,0,.1s0,.07-.08.09L8.5,59.55a.11.11,0,0,1-.12,0l-.07-.07-.08,0,.41.9.09,0a.36.36,0,0,1,0-.13S8.72,60.19,8.78,60.16Zm6.28,4.55-1.38,1.13a2.21,2.21,0,0,0-.41.44,1.27,1.27,0,0,0-.22.5,1.1,1.1,0,0,0,0,.56,1.86,1.86,0,0,0,.36.62,1.79,1.79,0,0,0,.53.48,1.21,1.21,0,0,0,.54.14,1.31,1.31,0,0,0,.54-.12,2.38,2.38,0,0,0,.51-.32L16.93,67a.12.12,0,0,1,.13,0l.1.08.07-.06-.75-.86-.07.06a.24.24,0,0,1,0,.07s0,.07-.06.1L14.88,67.6a.49.49,0,0,1-.44.13.7.7,0,0,1-.39-.27.78.78,0,0,1-.19-.44.5.5,0,0,1,.22-.4l1.49-1.23s.08-.05.11,0l.07,0,.07-.06-.7-.9-.07.06a.6.6,0,0,1,.06.12A.12.12,0,0,1,15.05,64.71ZM8.46,49.32l-1.73.37a2.89,2.89,0,0,0-.57.19,1.35,1.35,0,0,0-.43.35,1.14,1.14,0,0,0-.22.51,2.16,2.16,0,0,0,0,.71,2.09,2.09,0,0,0,.26.66,1.08,1.08,0,0,0,.41.38,1.33,1.33,0,0,0,.53.14,2.38,2.38,0,0,0,.6,0l1.74-.37c.06,0,.09,0,.12,0a.48.48,0,0,1,.05.12l.1,0-.27-1.11-.09,0a.25.25,0,0,1,0,.07s0,.05-.1.06L7,51.81a.48.48,0,0,1-.45-.08.83.83,0,0,1-.19-.9.5.5,0,0,1,.39-.26l1.88-.4c.06,0,.09,0,.11,0l0,.07.09,0-.2-1.13-.09,0a.48.48,0,0,1,0,.13S8.52,49.32,8.46,49.32ZM22.51,75.19l-1.46-1,.45-.64,1,.7a.11.11,0,0,1,0,.07s0,.08-.05.15l.06,0,.6-.84-.06,0c0,.06-.08.09-.11.09a.12.12,0,0,1-.09,0l-1-.69.37-.52,1.5,1.07a.13.13,0,0,1,0,.07.24.24,0,0,1-.06.15l.07,0,.61-.86-.06,0c0,.06-.08.09-.11.09a.1.1,0,0,1-.08,0l-2.33-1.67-.05.08a.3.3,0,0,1,.08.1.11.11,0,0,1,0,.12L20.1,74a.11.11,0,0,1-.11.06l-.11,0-.05.07,2.28,1.65a.21.21,0,0,1,.08.07s0,.07,0,.14l0,0,.61-.85-.06,0C22.66,75.22,22.58,75.24,22.51,75.19ZM27.61,78,26,77.2l.36-.7,1.06.54a.08.08,0,0,1,.06.07s0,.08,0,.15l.07,0,.46-.92-.07,0c0,.06-.07.1-.1.11h-.09l-1.06-.54.29-.57,1.64.84a.12.12,0,0,1,.05.07.21.21,0,0,1,0,.15l.07,0,.48-.95-.07,0c0,.06-.06.1-.1.11a.11.11,0,0,1-.08,0l-2.55-1.3,0,.09a.4.4,0,0,1,.09.08.1.1,0,0,1,0,.13L25,77.23a.1.1,0,0,1-.09.07l-.12,0,0,.08,2.51,1.28.09.06s0,.07,0,.14l.05,0,.47-.92-.06,0C27.76,78,27.68,78.05,27.61,78Zm14.88,4.09h1.28V82l-.09,0-.05-.09-1-1.95c.08-.07.54-.6.67-.73l.34-.33a.54.54,0,0,1,.25-.16v-.09H42.65v.09l.1,0a.11.11,0,0,1,.05.12.42.42,0,0,1-.07.1l-.19.21c-.07.09-1,1-1.05,1.1l0-1.46c0-.06,0-.09.06-.11l.12,0V78.6l-1.18-.08v.1a.13.13,0,0,1,.1,0,.14.14,0,0,1,.05.12l-.1,3a.13.13,0,0,1-.05.12.17.17,0,0,1-.11,0V82l1.19.07V82a.24.24,0,0,1-.12,0s-.06-.05-.06-.11l0-.64.57-.65s.57,1.17.6,1.23a.79.79,0,0,1,0,.11.11.11,0,0,1-.07.11l-.11,0ZM18.3,72.87l1,.82.06-.07a.17.17,0,0,1,0-.08.18.18,0,0,1,0-.11l.47-2.12c.12,0,.81-.12,1-.14l.47,0a.56.56,0,0,1,.3,0l.06-.07-1-.8-.06.07.06.1a.14.14,0,0,1,0,.11l-.12,0-.28,0-1.51.18,1-1.1s.07-.06.11,0l.12.06.06-.08-.87-.8L19,69A.14.14,0,0,1,19,69a.12.12,0,0,1,0,.13l-2,2.26a.14.14,0,0,1-.12.06.19.19,0,0,1-.1-.06l-.06.07.88.8.07-.07a.24.24,0,0,1-.07-.1s0-.08,0-.12l.42-.49.85-.14-.31,1.33a.37.37,0,0,1,0,.11.1.1,0,0,1-.12,0l-.1-.06ZM46.82,82l1-.1v-.09h-.08a.14.14,0,0,1-.06-.05c-.06-.14-1.22-2.69-1.27-2.81a1,1,0,0,1-.08-.21s0-.07.07-.08v-.1l-1.31.09v.1c.05,0,.09,0,.09.07a1.67,1.67,0,0,1-.08.33c-.05.2-.69,2.44-.79,2.82a.1.1,0,0,1,0,.07l-.07,0v.09l.94,0V82h-.05a.06.06,0,0,1,0-.06.34.34,0,0,1,0-.1s.11-.39.13-.44l1.45-.1s.17.38.19.42a.3.3,0,0,1,0,.09s0,.06,0,.07h-.05Zm-.39-1.24-1,.07.43-1.42ZM11.62,65.48l.6.85.07-.05a.24.24,0,0,1,0-.08.08.08,0,0,1,0-.07c.09-.11,1.72-2.39,1.8-2.5l.13-.17a.08.08,0,0,1,.11,0l.07-.05-.73-1.1-.08,0a.08.08,0,0,1,0,.11l-.33.1-2.83.71a.09.09,0,0,1-.08,0l-.06-.05-.08.05.5.8.07-.05,0,0s0,0,0-.06l.09,0,.43-.11L12.14,65l-.27.37s0,.06-.07.07-.05,0-.07,0l0,0Zm.87-1-.58-.87,1.44-.34ZM6.85,56.09l.34,1,.1,0a.12.12,0,0,1,0-.08.13.13,0,0,1,0-.06L9.72,55l.18-.13s.08,0,.1.05l.09,0-.41-1.25-.09,0c0,.06,0,.09,0,.1H9.21l-2.93-.08a.08.08,0,0,1-.07,0,.12.12,0,0,1,0-.07l-.09,0,.26.91.1,0a.07.07,0,0,1,0,0s0,0,.05,0H7l.45,1.4-.36.28L7,56.12s-.06,0-.07,0l0,0ZM8,55.4l-.33-1,1.48.06ZM30.57,79.95l1,.33,0-.08a.14.14,0,0,1-.06,0,.1.1,0,0,1,0-.08c0-.14,0-2.94,0-3.07a1.12,1.12,0,0,1,0-.22s0-.06.1,0l0-.09-1.24-.46,0,.09s.07.06,0,.11a1.63,1.63,0,0,1-.2.27l-1.88,2.25a.1.1,0,0,1-.07,0h-.08l0,.09.87.36,0-.08,0,0a.06.06,0,0,1,0-.07L29,79.1l.3-.35,1.37.51v.46a.4.4,0,0,1,0,.1s0,.05-.05,0h0Zm.14-1.29-1-.37,1-1.12Zm5.55-.77a2,2,0,0,0-.6,0,1.55,1.55,0,0,0-.6.21,1.48,1.48,0,0,0-.5.46,2.24,2.24,0,0,0-.33,1.59,1.6,1.6,0,0,0,.27.62,1.68,1.68,0,0,0,.47.42,2,2,0,0,0,1.17.24,1.52,1.52,0,0,0,.59-.19,1.64,1.64,0,0,0,.5-.46,2.26,2.26,0,0,0,.32-1.58,1.51,1.51,0,0,0-.28-.63,1.5,1.5,0,0,0-.46-.42A2,2,0,0,0,36.27,77.88Zm-.17.83a.83.83,0,0,1,.31.13.93.93,0,0,1,.23.24,1,1,0,0,1,.12.33,1.22,1.22,0,0,1,0,.4,1,1,0,0,1-.14.38.89.89,0,0,1-.24.26.74.74,0,0,1-.3.12.82.82,0,0,1-.35,0,.77.77,0,0,1-.3-.13.85.85,0,0,1-.23-.24.88.88,0,0,1-.12-.33,1.32,1.32,0,0,1,.16-.78.87.87,0,0,1,.24-.25.9.9,0,0,1,.31-.13A.81.81,0,0,1,36.1,78.71ZM77.72,50.64a2.14,2.14,0,0,0,0,.6,1.6,1.6,0,0,0,.21.6,1.64,1.64,0,0,0,.47.5,2,2,0,0,0,.76.31,1.91,1.91,0,0,0,.82,0,1.55,1.55,0,0,0,.62-.28A1.47,1.47,0,0,0,81,51.9a2.1,2.1,0,0,0,.21-.57,2,2,0,0,0,0-.6,1.59,1.59,0,0,0-.2-.59,1.54,1.54,0,0,0-.46-.49,1.88,1.88,0,0,0-.76-.31,2.14,2.14,0,0,0-.82,0,1.63,1.63,0,0,0-.62.28,1.52,1.52,0,0,0-.41.47A1.73,1.73,0,0,0,77.72,50.64Zm.82.16a.9.9,0,0,1,.13-.32.78.78,0,0,1,.23-.23.89.89,0,0,1,.34-.13,1.12,1.12,0,0,1,.4,0,1,1,0,0,1,.38.14.77.77,0,0,1,.25.24.69.69,0,0,1,.13.31.85.85,0,0,1,0,.34.7.7,0,0,1-.13.31.76.76,0,0,1-.24.23.8.8,0,0,1-.33.13,1.19,1.19,0,0,1-.4,0,1.16,1.16,0,0,1-.38-.15.8.8,0,0,1-.25-.24,1,1,0,0,1-.13-.31A.73.73,0,0,1,78.54,50.8Zm-46.45-4,1.47.62-.15-.63-1.46-.61Zm4.47,4.49c-.32-.12-.54-.23-.63-.27l-.21-1.09c-.11-.59-.26-1.51-.28-1.61L34.76,48c0,.09.25,1.23.25,1.3l.12.62c0,.11.21,1.16.24,1.39.22.09,1.24.59,1.32.62Zm3.83,2.14c.06-.2.44-1.61.5-1.83h0c.08.19.49,1.13.75,1.65h0c.22-.41.78-1.53.86-1.68,0,.12.48,1.62.59,2l.57-.32c-.11-.36-.83-2.53-1-3.09h0c-.14.29-.76,1.63-.9,1.9l-.9-2h0c-.13.4-.85,2.79-.91,3Zm4.21.15c.08-.19.28-.75.31-.85l1.18-.07c0,.07.23.59.32.8L47,53c-.19-.36-1.06-2.26-1.45-3h0c-.24.5-1.28,2.87-1.43,3.19Zm.5-1.38.39-1c0,.14.32.78.4,1Zm3.66-.31c-.29.14-.68.29-.76.33l.15-1c.09-.58.24-1.53.26-1.64l-.59.24c0,.08-.17,1.23-.18,1.31l-.09.62c0,.11-.17,1.11-.21,1.36l1.33-.5ZM52.48,51c.11-.24.88-2,1-2.25h0c0,.17.12,1,.2,1.48h0c.32-.52,1.13-1.91,1.24-2.09,0,.11,0,1.54,0,1.88l.59-.55c0-.33,0-2.41-.06-2.92h0c-.21.35-1.15,2-1.34,2.37,0-.21-.19-1.44-.24-1.79h0c-.22.46-1.65,3.56-1.76,3.79Zm3.68-1.54c.15-.23.52-.9.58-1l1.1-.5c0,.06,0,.65,0,.84l.67-.67c-.05-.32-.18-2.14-.27-2.82h0c-.4.62-2.2,3.54-2.44,4Zm1-1.67.72-1.23c0,.13,0,.71,0,.89ZM49.47,52.2c.12-.22.4-.86.45-1l1.09-.5c0,.06.15.59.2.77l.59-.63c-.11-.29-.59-2-.81-2.59h0c-.32.58-1.71,3.34-1.91,3.71Zm.72-1.57c.09-.21.45-1,.55-1.16,0,.13.15.66.19.83ZM32,49.82c-.13-.23-1.71-3.34-2-3.81h0c0,.36-.11,1.57-.13,1.79-.22-.34-1.24-2.06-1.48-2.43h0c0,.54.14,2.67.15,3l.62.55c0-.35-.15-1.82-.15-1.94.12.19,1,1.61,1.34,2.13h0c0-.48.1-1.35.1-1.52h0c.14.25,1,2.05,1.13,2.3Zm2.93,1.06c-.22-.35-1.71-2.9-2-3.44h0c-.18.59-.54,2.19-.63,2.46l.61.58c0-.17.13-.68.14-.73l1.08.44.47.9ZM33,49.32c0-.16.11-.66.13-.78l.6,1.08ZM39.64,53c-.19-.39-1.52-3.19-1.82-3.79h0c-.23.63-.73,2.33-.84,2.62l.58.65c.05-.18.18-.72.21-.77l1.07.52c0,.11.32.75.43,1ZM37.82,51.2c0-.17.17-.71.19-.84l.53,1.19Zm1.66,10H32.79q-.47-1.6-.84-3.34l-.79-.35c.27,1.28.57,2.5.91,3.69H23a36.73,36.73,0,0,1-4.42-17.42h5.57l-.27-.7h-5.3a36.58,36.58,0,0,1,4.45-17.42h9q-.61,2.15-1.07,4.49a3.22,3.22,0,0,1,.39.12l.28.12c.31-1.66.69-3.24,1.12-4.72h4c.14-.27.41-.71.41-.71H33c1.86-6.06,4.61-10.45,7.78-12l-.53,0-1.06.13c-2.07,1.54-4,4.23-5.52,7.94A40,40,0,0,0,32.29,25H23.47A26,26,0,0,1,36,13.73l-.22,0-1.12.31a27.53,27.53,0,0,0-2.83,1,28.25,28.25,0,0,0-9.15,9.86H19l-.53.71h3.8a37.45,37.45,0,0,0-4.36,17.42H12.81v.7h5.11A37.4,37.4,0,0,0,22.24,61.2H18.49l.52.71h3.61a28.53,28.53,0,0,0,8.87,9.72s1.29.53,1.83.7c0,0,1.08.38,1.7.54l.47.12A26.13,26.13,0,0,1,23.44,61.91h8.83a40.49,40.49,0,0,0,1.42,4c1.53,3.63,3.36,6.28,5.38,7.84l1.14.14.41,0c-3.1-1.64-5.8-6-7.63-12h8.08Zm34.4-17.42Zm0,0v-.7h-5a37.45,37.45,0,0,0-4.36-17.42h3.69L67.69,25H64.14a28.44,28.44,0,0,0-9-9.75l-.37-.15c-.15-.07-1.14-.44-1.14-.44-1-.36-2.7-.83-2.7-.83A26,26,0,0,1,63.33,25H54.51A40,40,0,0,0,53.11,21c-1.55-3.69-3.42-6.37-5.49-7.92l-.54-.08L46,12.94c3.17,1.57,5.92,6,7.78,12H52.47a3.91,3.91,0,0,1,.17.71H54c.43,1.48.8,3,1.13,4.7,0,0,.34-.14.53-.2l.14,0q-.46-2.32-1.07-4.45h9a36.76,36.76,0,0,1,4.45,17.42H62.85l-.27.7h5.6A36.76,36.76,0,0,1,63.77,61.2h-9c.35-1.19.65-2.42.91-3.71l-.79.35c-.25,1.16-.54,2.28-.85,3.35H47.3l-1.59.71h8.1c-1.82,6-4.51,10.31-7.6,12l1-.11.57-.08c2-1.56,3.83-4.2,5.35-7.82a41,41,0,0,0,1.43-4h8.83a26.2,26.2,0,0,1-11.87,11s1.31-.36,2.13-.67c0,0,1.29-.48,1.6-.63l.27-.1a28.68,28.68,0,0,0,8.68-9.6h3.49c.12-.15.53-.71.53-.71H64.57a37.5,37.5,0,0,0,4.33-17.42Zm-15-6.37,1.57-4.14c-2.06.38-6.38,2.42-13,9.06Zm-3-6c-.83.23-3.89,1.79-8,8.89a49.42,49.42,0,0,1,6.76-5.69ZM37.6,35a6.19,6.19,0,0,0,5.79,3.32A6.42,6.42,0,0,0,49.23,35Zm12.25-1.85H36.93a.53.53,0,0,0,0,1.07H49.85a.53.53,0,0,0,0-1.07ZM39.38,42.33c-6.65-6.64-11-8.68-13-9.06l1.57,4.14Zm-7.21-7.69a49.44,49.44,0,0,1,6.75,5.69c-4.07-7.11-7.12-8.67-8-8.89Zm13.9,9.49.5-5.64a7.53,7.53,0,0,1-2.53.62l-.51,9.32a.13.13,0,0,1-.13.12h0a.13.13,0,0,1-.14-.12l-.51-9.32a7.61,7.61,0,0,1-2.53-.61l.49,5.63L22.85,36.7,30,55.65l11.36,5,.26-4.44a.08.08,0,0,1,.07-.08.08.08,0,0,1,.08.08l.43,4.82h0l.4,4.6a.79.79,0,0,0,.78.75.77.77,0,0,0,.78-.74l.41-4.6h0L45,56.25a.08.08,0,0,1,.16,0l.26,4.44,11.36-5L63.94,36.7ZM48.3,29a3.36,3.36,0,0,0,.14-.94,4,4,0,0,0-.38-1.54,9,9,0,0,1-.4-1.24,8.66,8.66,0,0,1-.17-1.77c0-.13,0-.26,0-.38l-.87.49C44,25,40.4,27,40.4,32c0,.12,0,.25,0,.38h5.3A8.93,8.93,0,0,0,48.3,29Zm2.05-6.24a6.49,6.49,0,0,1,.12-3.93c-3.59.85-4.29,3-5.35,3.23-.84.16-.61-1.86-.61-1.86s-5.09,2.6-6.85,6.71c-1.51,3.55-.12,5.53-.12,5.53h1.87c-.18-5.92,4-8.18,6.74-9.71.62-.34,1.21-.66,1.66-1l1-.68-.19,1.17a8.77,8.77,0,0,0,.06,2.8A7,7,0,0,0,49,26.12a4.35,4.35,0,0,1,.28,3.12,8.22,8.22,0,0,1-2.09,3.18h1.35s1.4-.58,2.52-3.06C52.15,26.17,51,24.86,50.35,22.74ZM38.63,69.65h.06a.21.21,0,0,1,0-.07.09.09,0,0,1,0,0l.11,0,.18-.05v1.51A.07.07,0,0,1,39,71l-.08,0v.06h.95V71l-.08,0a.07.07,0,0,1,0-.07V68.74a.06.06,0,0,1,0-.07l.09,0v-.06h-.94v.06l.06,0s0,0,0,.07v.15l-.06,0-.1,0-.1,0-.05,0s0,0,0,0a.41.41,0,0,1,0-.07h-.06Zm2.27.7-.37.64.06,0a.14.14,0,0,1,.11-.05l.08,0L41,71l.27,0a2.17,2.17,0,0,0,.34,0,1.91,1.91,0,0,0,.55-.08,1.27,1.27,0,0,0,.46-.25,1.11,1.11,0,0,0,.32-.41A1.25,1.25,0,0,0,43,69.8a1.44,1.44,0,0,0-.1-.54.93.93,0,0,0-.27-.38,1,1,0,0,0-.41-.23,1.84,1.84,0,0,0-.54-.08,1.78,1.78,0,0,0-.39,0,1.37,1.37,0,0,0-.36.15.88.88,0,0,0-.28.25.77.77,0,0,0-.1.39.89.89,0,0,0,.07.35,1,1,0,0,0,.21.26,1.09,1.09,0,0,0,.3.17,1.11,1.11,0,0,0,.35.06,1.49,1.49,0,0,0,.44-.06,3.91,3.91,0,0,0,.45-.18.72.72,0,0,1-.09.29.6.6,0,0,1-.19.21.83.83,0,0,1-.25.13,1,1,0,0,1-.29,0h-.23l-.19,0a.4.4,0,0,1-.14-.07.13.13,0,0,1-.05-.11v0ZM41.7,69h.16a.43.43,0,0,1,.17.06.31.31,0,0,1,.14.1.25.25,0,0,1,.06.17.25.25,0,0,1-.06.17.33.33,0,0,1-.14.11l-.17.05h-.31l-.17-.05a.33.33,0,0,1-.14-.11.28.28,0,0,1-.05-.17.28.28,0,0,1,.05-.17.31.31,0,0,1,.14-.1.45.45,0,0,1,.17-.06Zm3.1-.4a1.23,1.23,0,0,0-.5.1,1.29,1.29,0,0,0-.41.26,1.25,1.25,0,0,0-.28.4,1.21,1.21,0,0,0-.11.51,1.23,1.23,0,0,0,.11.51,1.25,1.25,0,0,0,.28.4,1.33,1.33,0,0,0,.91.35,1.33,1.33,0,0,0,.49-.09,1.22,1.22,0,0,0,.41-.26,1.38,1.38,0,0,0,.28-.4,1.29,1.29,0,0,0,.1-.51,1.27,1.27,0,0,0-.1-.51,1.37,1.37,0,0,0-.28-.4,1.2,1.2,0,0,0-.41-.26A1.24,1.24,0,0,0,44.8,68.65Zm0,.56a.53.53,0,0,1,.45.23.93.93,0,0,1,.11.23,1.18,1.18,0,0,1,0,.26,1.14,1.14,0,0,1,0,.26.9.9,0,0,1-.11.23.57.57,0,0,1-.18.17.6.6,0,0,1-.53,0,.51.51,0,0,1-.19-.17.69.69,0,0,1-.1-.23,1,1,0,0,1,0-.26,1.08,1.08,0,0,1,0-.26.7.7,0,0,1,.1-.23.48.48,0,0,1,.19-.16A.53.53,0,0,1,44.8,69.21Zm1.81,0h1.53l-1,1.76L47,71a.15.15,0,0,1-.09,0v.05h1V71l-.07,0a.06.06,0,0,1,0-.07.23.23,0,0,1,0-.08l.06-.1.91-1.67v-.61h-.06a.11.11,0,0,1,0,.09l-.05,0H46.61l-.06,0a.12.12,0,0,1,0-.1h-.05v.78h.05a.1.1,0,0,1,0-.09Z"/><text></text><path class="cls-1" d="M68.72,82.56v.21h-.93V85h-.25V82.77h-.93v-.21ZM71.36,85l-.15-1.66c0-.15,0-.37,0-.57h0c-.07.2-.15.44-.23.63L70.28,85h-.21l-.68-1.62a5.17,5.17,0,0,1-.2-.58h0c0,.2,0,.37,0,.57L69,85h-.26L69,82.56h.32L70,84.13a5.88,5.88,0,0,1,.19.58h0a4.17,4.17,0,0,1,.19-.59l.67-1.57h.33L71.63,85Z"/></g></g></svg>